<svg width="16" height="16" viewBox="0 0 16 16" fill="none" xmlns="http://www.w3.org/2000/svg">
<path d="M13.75 11.625H8.125C7.07031 11.625 6.25 10.8047 6.25 9.75V2.25C6.25 1.22461 7.07031 0.375 8.125 0.375H12.2266C12.5781 0.375 12.959 0.550781 13.2227 0.814453L15.1855 2.77734C15.4492 3.04102 15.625 3.42188 15.625 3.77344V9.75C15.625 10.8047 14.7754 11.625 13.75 11.625ZM2.5 4.125H5.3125V5.53125H2.5C2.23633 5.53125 2.03125 5.76562 2.03125 6V13.5C2.03125 13.7637 2.23633 13.9688 2.5 13.9688H8.125C8.35938 13.9688 8.59375 13.7637 8.59375 13.5V12.5625H10V13.5C10 14.5547 9.15039 15.375 8.125 15.375H2.5C1.44531 15.375 0.625 14.5547 0.625 13.5V6C0.625 4.97461 1.44531 4.125 2.5 4.125Z" fill="#757575"/>
</svg>
