<svg width="16" height="16" viewBox="0 0 16 16" fill="none" xmlns="http://www.w3.org/2000/svg">
<path d="M9.33366 1.33325H4.00033C3.26033 1.33325 2.66699 1.93325 2.66699 2.66659V13.3333C2.66699 14.0733 3.26033 14.6666 4.00033 14.6666H12.0003C12.7403 14.6666 13.3337 14.0733 13.3337 13.3333V5.33325L9.33366 1.33325ZM12.0003 13.3333H4.00033V2.66659H8.66699V5.99992H12.0003V13.3333ZM7.96699 10.3066L9.38699 11.7199L8.44033 12.6666L7.02699 11.2466L5.61366 12.6666L4.66699 11.7199L6.08699 10.3066L4.66699 8.89325L5.61366 7.94659L7.02699 9.36658L8.44033 7.94659L9.38699 8.89325L7.96699 10.3066Z" fill="#757575"/>
</svg>
