<svg width="13" height="15" viewBox="0 0 13 15" fill="none" xmlns="http://www.w3.org/2000/svg">
<path d="M4.66699 12.3342H2.00033V1.66756H6.66699V5.0009H10.0003V7.06756L11.3337 5.73423V4.33423L7.33366 0.334229H2.00033C1.26699 0.334229 0.666992 0.934229 0.666992 1.66756V12.3342C0.666992 13.0676 1.26699 13.6676 2.00033 13.6676H4.66699V12.3342ZM11.467 7.66756C11.5337 7.66756 11.667 7.73423 11.7337 7.8009L12.6003 8.66756C12.7337 8.8009 12.7337 9.06756 12.6003 9.2009L11.9337 9.86756L10.5337 8.46756L11.2003 7.8009C11.267 7.73423 11.3337 7.66756 11.467 7.66756ZM11.467 10.2676L7.40033 14.3342H6.00033V12.9342L10.067 8.86756L11.467 10.2676Z" fill="#757575"/>
</svg>
