<svg width="135" height="40" viewBox="0 0 135 40" fill="none" xmlns="http://www.w3.org/2000/svg">
<path d="M18.5666 26.8237C18.4319 27.0162 18.2971 27.1895 18.1624 27.3435C18.0276 27.4782 17.9121 27.5937 17.8159 27.69L17.6138 27.8921C17.5753 27.9114 17.5271 27.9402 17.4694 27.9787C17.4309 28.0172 17.3924 28.0557 17.3539 28.0943C17.3154 28.1712 17.2769 28.2482 17.2384 28.3252C17.2191 28.383 17.1903 28.4504 17.1518 28.5274C17.0555 28.7584 16.9304 28.9605 16.7764 29.1337C16.7571 29.153 16.7379 29.1819 16.7186 29.2204C16.7186 29.2589 16.709 29.2685 16.6898 29.2492C16.6705 29.23 16.6609 29.2011 16.6609 29.1626L16.4876 29.4225C16.4684 29.461 16.4395 29.4995 16.401 29.538C16.401 29.538 16.3914 29.5476 16.3721 29.5669C16.3721 29.5669 16.3625 29.5669 16.3433 29.5669C16.324 29.5669 16.3144 29.5765 16.3144 29.5957C16.3144 29.5957 16.3048 29.5957 16.2855 29.5957C16.2663 29.8075 16.2566 30.1348 16.2566 30.5775C16.2566 31.0203 16.247 31.5015 16.2278 32.0213C16.2278 32.541 16.2181 33.0223 16.1989 33.465C16.1989 33.9078 16.1893 34.235 16.17 34.4468C16.17 34.466 16.1508 34.4853 16.1123 34.5045C16.0738 34.5238 16.0545 34.5238 16.0545 34.5045C16.0353 34.2928 16.016 33.9559 15.9968 33.4939C15.9968 33.0319 15.9968 32.5314 15.9968 31.9924C15.9968 31.4726 15.9871 30.9818 15.9679 30.5198C15.9679 30.077 15.9583 29.7401 15.939 29.5091C15.9005 29.4706 15.862 29.4417 15.8235 29.4225C15.8235 29.4225 15.8043 29.4032 15.7658 29.3647C15.7658 29.3647 15.7561 29.3647 15.7369 29.3647C15.7369 29.3455 15.7369 29.3262 15.7369 29.307C15.7176 29.307 15.708 29.307 15.708 29.307C15.708 29.2877 15.6984 29.2781 15.6791 29.2781L15.6503 29.307C15.631 29.3647 15.6214 29.4225 15.6214 29.4802C15.6214 29.538 15.6021 29.615 15.5636 29.7112C15.5444 29.7882 15.5059 29.8556 15.4481 29.9134C15.4096 29.9711 15.3615 30.0385 15.3038 30.1155C15.3038 30.1348 15.2845 30.1829 15.246 30.2599C15.2075 30.2984 15.1786 30.3176 15.1594 30.3176C15.1401 30.3176 15.1305 30.3176 15.1305 30.3176C15.1305 30.3369 15.1305 30.3465 15.1305 30.3465C14.9573 30.6545 14.8129 31.001 14.6974 31.386L14.4953 32.0501C14.476 32.1079 14.4471 32.1849 14.4086 32.2811C14.3894 32.3966 14.3798 32.4255 14.3798 32.3678C14.3413 32.0598 14.322 31.7518 14.322 31.4438C14.3413 31.1358 14.3316 30.8278 14.2931 30.5198C14.2931 30.539 14.2835 30.5486 14.2643 30.5486C14.2643 30.5486 14.2643 30.5583 14.2643 30.5775C14.2258 30.7123 14.1776 30.8374 14.1199 30.9529C14.0621 31.0876 14.0044 31.2224 13.9466 31.3571C13.8504 31.5689 13.7349 31.7806 13.6001 31.9924C13.4654 32.2041 13.3114 32.3966 13.1381 32.5699C13.1189 32.5891 13.0804 32.618 13.0226 32.6565C12.9841 32.7143 12.936 32.7624 12.8783 32.8009C12.8013 32.8779 12.7243 32.9549 12.6473 33.0319C12.5895 33.1281 12.4836 33.157 12.3296 33.1185C12.2141 33.0608 12.1083 32.9838 12.012 32.8875C11.935 32.8298 11.8484 32.7528 11.7521 32.6565C11.6751 32.5603 11.5981 32.4736 11.5211 32.3966C11.3671 32.2041 11.2228 31.9924 11.088 31.7614C10.9725 31.5496 10.8474 31.3283 10.7126 31.0973C10.6741 31.0203 10.626 30.924 10.5683 30.8085C10.5105 30.7123 10.4528 30.6256 10.395 30.5486L10.3084 30.462C10.3084 30.4428 10.2891 30.4331 10.2506 30.4331C10.2506 30.4331 10.2121 30.4043 10.1351 30.3465C10.0966 30.3658 10.0774 30.4043 10.0774 30.462C10.0774 30.539 10.0581 30.5968 10.0196 30.6353C9.98113 30.7123 9.95225 30.7508 9.933 30.7508C9.91375 30.7315 9.8945 30.7026 9.87525 30.6641C9.87525 30.6256 9.86563 30.5968 9.84638 30.5775L9.75975 30.2888H9.73088C7.65188 30.2503 5.929 29.9326 4.56225 29.3359C3.21475 28.7199 2.20413 27.9595 1.53038 27.0547C1.39563 26.8815 1.28013 26.7082 1.18388 26.535C1.08763 26.381 1.01063 26.227 0.952875 26.073L0.837375 25.7842C0.779625 25.6302 0.7315 25.4762 0.693 25.3222C0.6545 25.149 0.616 24.9854 0.5775 24.8314C0.55825 24.6774 0.529375 24.5234 0.490875 24.3694C0.471625 24.1961 0.5005 24.0325 0.5775 23.8785C0.5775 23.8592 0.5775 23.8496 0.5775 23.8496C0.59675 23.8304 0.606375 23.8207 0.606375 23.8207C0.644875 23.7437 0.721875 23.6667 0.837375 23.5897C0.914375 23.5512 0.991375 23.532 1.06838 23.532C1.14538 23.5127 1.21275 23.5031 1.2705 23.5031C1.54 23.4839 1.8095 23.4839 2.079 23.5031C2.3485 23.5031 2.60838 23.5031 2.85863 23.5031H5.60175C5.698 23.5031 5.82313 23.5031 5.97713 23.5031C6.15038 23.4839 6.30438 23.4742 6.43913 23.4742C6.55463 23.4742 6.6605 23.4839 6.75675 23.5031C6.87225 23.5031 6.9685 23.5127 7.0455 23.532C7.1995 23.5512 7.32463 23.5994 7.42087 23.6764C7.53638 23.7341 7.65188 23.8111 7.76738 23.9074L8.2005 24.1961C8.33525 24.2731 8.47 24.3405 8.60475 24.3982C8.7395 24.456 8.87425 24.5041 9.009 24.5426C9.25925 24.6196 9.59613 24.6581 10.0196 24.6581C10.2506 24.6581 10.472 24.6485 10.6838 24.6292C10.8955 24.61 11.088 24.5811 11.2613 24.5426L11.55 24.456C11.5885 24.4367 11.6174 24.4271 11.6366 24.4271C11.6751 24.4271 11.704 24.4175 11.7233 24.3982C12.0313 24.2442 12.1853 24.0614 12.1853 23.8496V23.8207C12.1853 23.7052 12.1371 23.5801 12.0409 23.4454L11.8676 23.2721H11.8388C11.7618 23.2336 11.6559 23.2336 11.5211 23.2721C11.3864 23.2914 11.2709 23.3106 11.1746 23.3299C11.0976 23.3299 11.011 23.3395 10.9148 23.3587C10.8378 23.3587 10.7511 23.3587 10.6549 23.3587C10.6164 23.3587 10.5779 23.3491 10.5394 23.3299C10.5009 23.3106 10.4624 23.301 10.4239 23.301C10.3661 23.3202 10.3084 23.3395 10.2506 23.3587C10.2121 23.378 10.1736 23.3972 10.1351 23.4165C10.0389 23.455 9.933 23.4935 9.8175 23.532C9.702 23.5705 9.5865 23.6186 9.471 23.6764C9.29775 23.7534 9.11488 23.8207 8.92238 23.8785C8.74913 23.917 8.56625 23.8977 8.37375 23.8207C8.25825 23.7822 8.15238 23.7341 8.05613 23.6764C7.95988 23.6186 7.86363 23.5609 7.76738 23.5031C7.57488 23.4069 7.392 23.301 7.21875 23.1855C7.06475 23.07 6.91075 22.9449 6.75675 22.8101L6.09263 22.146L5.86163 21.9727H5.6595C5.64025 21.992 5.61138 22.0209 5.57288 22.0594C5.55363 22.0786 5.52475 22.1075 5.48625 22.146C5.40925 22.223 5.32263 22.3096 5.22638 22.4059C5.13013 22.5021 5.03388 22.5887 4.93763 22.6657C4.89913 22.685 4.84138 22.7139 4.76438 22.7524C4.70663 22.7909 4.64888 22.8005 4.59113 22.7812C4.51413 22.7427 4.44675 22.685 4.389 22.608C4.33125 22.531 4.28313 22.454 4.24462 22.377C4.18688 22.223 4.13875 22.0594 4.10025 21.8861C4.081 21.7129 4.03288 21.5589 3.95588 21.4241C3.87888 21.3664 3.79225 21.299 3.696 21.222C3.619 21.145 3.542 21.068 3.465 20.991C3.44575 20.9717 3.4265 20.9525 3.40725 20.9332C3.40725 20.914 3.388 20.8947 3.3495 20.8755C3.21475 20.7407 3.13775 20.6734 3.1185 20.6734C3.1185 20.6734 3.08 20.6541 3.003 20.6156C2.9645 20.5771 2.94525 20.5386 2.94525 20.5001C2.772 20.3461 2.60838 20.1825 2.45438 20.0092C2.39663 19.9322 2.32925 19.8649 2.25225 19.8071C2.1945 19.7301 2.14638 19.6531 2.10788 19.5761C2.03088 19.4991 1.9635 19.4125 1.90575 19.3162C1.848 19.22 1.79025 19.1334 1.7325 19.0564C1.694 18.9794 1.6555 18.912 1.617 18.8542C1.5785 18.7772 1.54 18.7002 1.5015 18.6232C1.32825 18.3345 1.1935 17.9302 1.09725 17.4105C1.02025 16.8907 0.991375 16.3806 1.01063 15.8801C1.02988 15.3604 1.08763 14.9561 1.18388 14.6674C1.22238 14.5519 1.26088 14.4364 1.29938 14.3209C1.33788 14.2054 1.37638 14.0899 1.41488 13.9744C1.45338 13.8589 1.49188 13.7722 1.53038 13.7145C1.56888 13.599 1.60738 13.5124 1.64588 13.4546C2.26188 12.2611 3.25325 11.3179 4.62 10.6249C5.98675 9.91262 7.64225 9.53725 9.5865 9.49875H9.8175C11.4153 9.49875 12.8013 9.72975 13.9755 10.1917C15.169 10.6345 16.1508 11.212 16.9208 11.9242C17.6908 12.6172 18.2394 13.3391 18.5666 14.0899C18.6051 14.2054 18.6436 14.3209 18.6821 14.4364C18.7399 14.5519 18.7784 14.6674 18.7976 14.7829C18.8361 14.8984 18.865 15.0235 18.8843 15.1583C18.9228 15.293 18.9228 15.4277 18.8843 15.5625C18.8458 15.7357 18.7688 15.8705 18.6533 15.9667C18.5763 16.0437 18.5089 16.0919 18.4511 16.1111C18.4511 16.1111 18.4319 16.1304 18.3934 16.1689C18.3741 16.1689 18.3549 16.1592 18.3356 16.14C18.3164 16.1592 18.2971 16.1689 18.2779 16.1689C18.2586 16.1496 18.2298 16.1496 18.1913 16.1689C18.1528 16.1689 18.1046 16.1881 18.0469 16.2266C18.0084 16.2459 17.9699 16.2651 17.9314 16.2844C17.7966 16.3421 17.6619 16.4095 17.5271 16.4865C17.4116 16.5635 17.2769 16.6116 17.1229 16.6309C16.9689 16.6309 16.8149 16.6116 16.6609 16.5731C16.5069 16.5154 16.3529 16.4865 16.1989 16.4865C16.0834 16.4865 15.9679 16.5154 15.8524 16.5731C15.7369 16.6116 15.6214 16.6212 15.5059 16.602C15.4289 16.5827 15.3519 16.5539 15.2749 16.5154C15.1979 16.4576 15.1209 16.4095 15.0439 16.371C14.9861 16.3517 14.9284 16.3325 14.8706 16.3132C14.8129 16.294 14.7551 16.2844 14.6974 16.2844L14.4664 16.3421C14.2739 16.3806 14.0814 16.4191 13.8889 16.4576C13.6964 16.4961 13.4943 16.525 13.2825 16.5442C13.2055 16.5635 13.1285 16.5924 13.0515 16.6309C12.9938 16.6694 12.9264 16.6982 12.8494 16.7175C12.7339 16.756 12.6088 16.7849 12.474 16.8041C12.3585 16.8234 12.2334 16.8137 12.0986 16.7752C11.9254 16.6982 11.781 16.5827 11.6655 16.4287C11.5693 16.2555 11.4634 16.1015 11.3479 15.9667C11.3094 15.909 11.2613 15.8512 11.2035 15.7935C11.1458 15.7357 11.088 15.678 11.0303 15.6202C11.011 15.6395 10.9821 15.6491 10.9436 15.6491C10.6164 15.7454 10.318 15.7069 10.0485 15.5336C9.99075 15.4951 9.933 15.4566 9.87525 15.4181C9.8175 15.3604 9.75013 15.3219 9.67313 15.3026C9.67313 15.2834 9.63463 15.2545 9.55763 15.216C9.48063 15.2352 9.40363 15.2641 9.32663 15.3026C9.24963 15.3219 9.17263 15.3507 9.09563 15.3892C9.07638 15.3892 9.0475 15.3989 9.009 15.4181C8.98975 15.4181 8.96088 15.4181 8.92238 15.4181H8.74913C8.67213 15.4181 8.624 15.4278 8.60475 15.447C8.60475 15.4662 8.5855 15.4951 8.547 15.5336C8.547 15.5529 8.53738 15.5625 8.51813 15.5625C8.51813 15.5625 8.51813 15.5721 8.51813 15.5914C8.47963 15.6684 8.46038 15.7261 8.46038 15.7646C8.44113 15.8031 8.4315 15.8609 8.4315 15.9379C8.4315 16.2074 8.5855 16.4095 8.8935 16.5442C8.932 16.5827 9.009 16.6212 9.1245 16.6597C9.29775 16.7367 9.48063 16.7945 9.67313 16.833C10.0389 16.9292 10.4528 17.0159 10.9148 17.0929L11.6366 17.1795C11.6751 17.1795 11.7136 17.1891 11.7521 17.2084C11.8099 17.2084 11.8484 17.2084 11.8676 17.2084L12.4163 17.295H12.5895C12.6088 17.3142 12.628 17.3239 12.6473 17.3239C12.705 17.3239 12.7628 17.3335 12.8205 17.3527C12.8975 17.3527 12.9745 17.3624 13.0515 17.3816C16.0545 17.9206 17.9988 18.9409 18.8843 20.4424C18.9035 20.4424 18.9131 20.452 18.9131 20.4712C19.0286 20.606 19.1153 20.7889 19.173 21.0199C19.1923 21.0584 19.2115 21.1065 19.2308 21.1642C19.25 21.2027 19.2693 21.2412 19.2885 21.2797L19.4618 21.7995C19.4618 21.8187 19.4618 21.8476 19.4618 21.8861C19.481 21.9054 19.4906 21.9246 19.4906 21.9439C19.5484 22.1171 19.5773 22.2904 19.5773 22.4636C19.5965 22.5791 19.6061 22.6946 19.6061 22.8101C19.6061 22.9064 19.6061 23.0026 19.6061 23.0989V23.4742C19.6061 24.1672 19.4906 24.8314 19.2596 25.4666C19.1249 25.9479 18.9613 26.3136 18.7688 26.5639L18.5666 26.8237ZM36.9677 28.9605C36.9677 29.0375 36.958 29.0952 36.9388 29.1337C36.9388 29.384 36.8907 29.5669 36.7944 29.6824C36.7752 29.7209 36.7367 29.769 36.6789 29.8267C36.6212 29.8652 36.5634 29.9037 36.5057 29.9422C36.2939 30.154 36.1977 30.3273 36.2169 30.462C36.2362 30.5968 36.2939 30.7123 36.3902 30.8085C36.4864 30.9048 36.5442 31.0203 36.5634 31.155C36.5827 31.2898 36.4864 31.463 36.2747 31.6748C36.2554 31.7325 36.2362 31.7903 36.2169 31.848C36.2169 31.925 36.1977 31.9828 36.1592 32.0213C36.1399 32.0405 36.1014 31.9924 36.0437 31.8769C36.0244 31.7806 36.0052 31.6748 35.9859 31.5593C35.9667 31.4438 35.9474 31.3283 35.9282 31.2128C35.9089 30.8855 35.8993 30.693 35.8993 30.6353C35.9185 30.5968 35.88 30.4716 35.7838 30.2599L35.6683 30.3754C35.6105 30.4331 35.5528 30.4813 35.495 30.5198C35.4565 30.5583 35.4084 30.616 35.3507 30.693C35.2737 30.8085 35.1967 30.924 35.1197 31.0395C35.0427 31.155 34.9657 31.2705 34.8887 31.386C34.8694 31.4053 34.8405 31.4534 34.802 31.5304C34.7635 31.6074 34.725 31.6555 34.6865 31.6748C34.5903 31.7133 34.5133 31.6651 34.4555 31.5304C34.3978 31.3956 34.3497 31.309 34.3112 31.2705C34.2919 31.2128 34.2727 31.155 34.2534 31.0973C34.2534 31.0395 34.2342 30.9818 34.1957 30.924C34.1572 30.9048 34.0994 30.8566 34.0224 30.7796C33.9839 30.7411 33.955 30.7026 33.9358 30.6641L33.647 30.3176L33.5027 30.1733C33.4642 30.1925 33.416 30.1829 33.3583 30.1444C33.3005 30.1059 33.2524 30.077 33.2139 30.0578C33.1177 30.154 33.0695 30.2118 33.0695 30.231C32.9155 30.3658 32.7808 30.5198 32.6653 30.693C32.569 30.8855 32.4728 31.078 32.3765 31.2705C32.3573 31.309 32.3188 31.3571 32.261 31.4149C32.2225 31.4726 32.1744 31.5208 32.1167 31.5593C32.0782 31.5978 32.0493 31.617 32.03 31.617C32.0108 31.7325 31.9915 31.848 31.9723 31.9635C31.9723 32.0983 31.953 32.2234 31.9145 32.3389C31.8953 32.3581 31.8664 32.3485 31.8279 32.31C31.8087 32.2908 31.799 32.2715 31.799 32.2523C31.7605 32.0983 31.7413 31.9828 31.7413 31.9057C31.7605 31.848 31.7317 31.7036 31.6547 31.4726C31.6354 31.4726 31.6162 31.463 31.5969 31.4438C31.5969 31.4245 31.5777 31.3956 31.5392 31.3571C31.5392 31.3186 31.5199 31.2898 31.4814 31.2705C31.4622 31.2513 31.4525 31.2416 31.4525 31.2416L31.1927 30.8085L30.8462 30.2599C30.8269 30.1829 30.798 30.1059 30.7595 30.0289C30.721 29.9711 30.6825 29.9134 30.644 29.8556L30.6152 29.8267C30.5382 29.769 30.4612 29.6727 30.3842 29.538C30.3842 29.5187 30.3745 29.5091 30.3553 29.5091C30.3553 29.4899 30.3553 29.4706 30.3553 29.4514C30.336 29.3551 30.3264 29.2492 30.3264 29.1337C30.3264 28.999 30.3264 28.8354 30.3264 28.6429V28.4119C30.2879 28.4504 30.259 28.4889 30.2398 28.5274L30.1532 28.614C29.9799 28.8257 29.7874 29.0182 29.5757 29.1915C29.4987 29.384 29.4409 29.5861 29.4024 29.7979C29.3639 29.9904 29.2965 30.1829 29.2003 30.3754C29.181 30.4524 29.1425 30.5294 29.0848 30.6064C29.0463 30.7026 28.9885 30.7796 28.9115 30.8374C28.8923 30.8566 28.8345 30.8759 28.7383 30.8951C28.6613 30.9144 28.6132 30.9144 28.5939 30.8951C28.5747 30.8374 28.565 30.77 28.565 30.693C28.565 30.6353 28.565 30.5775 28.565 30.5198C28.5458 30.5775 28.5169 30.6256 28.4784 30.6641C28.4592 30.7219 28.4303 30.77 28.3918 30.8085C28.3725 30.847 28.3437 30.8759 28.3052 30.8951C28.2667 30.9336 28.2282 30.9721 28.1897 31.0106C28.1319 31.3186 28.0838 31.6074 28.0453 31.8769C28.026 32.1656 27.9972 32.464 27.9587 32.772C27.9394 32.849 27.9202 32.926 27.9009 33.003C27.8817 33.0993 27.8528 33.1955 27.8143 33.2918C27.8143 33.388 27.7854 33.465 27.7277 33.5228C27.7084 33.542 27.6699 33.5228 27.6122 33.465C27.5929 33.4265 27.5737 33.3784 27.5544 33.3206C27.5352 33.2821 27.5159 33.2436 27.4967 33.2051C27.4774 33.1089 27.4389 32.9453 27.3812 32.7143C27.3234 32.5025 27.2753 32.3581 27.2368 32.2811C27.2175 32.2041 27.1983 32.1175 27.179 32.0213C27.1598 31.9442 27.1405 31.8673 27.1213 31.7903C27.102 31.7325 27.0828 31.6651 27.0635 31.5881C27.0635 31.5304 27.0443 31.463 27.0058 31.386L26.9192 31.2994C26.8614 31.2224 26.8037 31.1358 26.7459 31.0395C26.6882 30.9625 26.6304 30.8855 26.5727 30.8085C26.5534 30.7508 26.5245 30.693 26.486 30.6353C26.4475 30.5968 26.409 30.539 26.3705 30.462C26.3513 30.4235 26.332 30.385 26.3128 30.3465C26.2935 30.3273 26.2647 30.308 26.2262 30.2888H25.9952C24.7439 30.2503 23.6659 29.9519 22.7612 29.3936C21.8757 28.8354 21.2597 28.1231 20.9132 27.2569C20.8939 27.1991 20.8747 27.1414 20.8554 27.0836C20.8362 27.0259 20.8169 26.9681 20.7977 26.9104C20.7977 26.8911 20.788 26.8719 20.7688 26.8526C20.7688 26.8334 20.7688 26.8141 20.7688 26.7949C20.7495 26.6986 20.7303 26.612 20.711 26.535C20.6918 26.4387 20.6725 26.3521 20.6533 26.2751C20.634 26.1596 20.6244 26.0441 20.6244 25.9286C20.6244 25.7939 20.6244 25.6687 20.6244 25.5532C20.6244 25.4762 20.6244 25.4089 20.6244 25.3511C20.6437 25.2934 20.6533 25.226 20.6533 25.149L20.6822 24.9469C20.7399 24.6389 20.8265 24.3597 20.942 24.1095C21.2115 23.4935 21.6254 22.9641 22.1837 22.5214C22.2992 22.4251 22.4147 22.3385 22.5302 22.2615C22.6457 22.1845 22.7708 22.1075 22.9055 22.0305L23.2809 21.8284C23.3194 21.7899 23.3675 21.7514 23.4253 21.7129C23.483 21.6744 23.5408 21.6455 23.5985 21.6262C23.637 21.5877 23.6852 21.5589 23.7429 21.5396C23.8007 21.5204 23.8584 21.5011 23.9162 21.4819C24.1279 21.3856 24.3397 21.3086 24.5514 21.2509C24.7824 21.1931 25.0134 21.1354 25.2444 21.0776C25.5139 21.0006 25.7834 20.9332 26.0529 20.8755C26.3417 20.8177 26.64 20.76 26.948 20.7022L27.641 20.5867C27.9105 20.5482 28.1704 20.5097 28.4207 20.4712C28.6902 20.4135 28.9597 20.3654 29.2292 20.3269C29.3062 20.3269 29.3543 20.3172 29.3735 20.298L30.0088 20.1825V19.7205C30.0088 19.7975 29.9992 19.7782 29.9799 19.6627C29.9799 19.5472 29.9799 19.4799 29.9799 19.4606C29.9799 19.4799 29.9703 19.4606 29.951 19.4029C29.951 19.3259 29.951 19.297 29.951 19.3162C29.951 19.297 29.9414 19.2777 29.9222 19.2585C29.9222 19.2392 29.9222 19.22 29.9222 19.2007C29.8837 19.0852 29.8067 18.9697 29.6912 18.8542C29.6719 18.8542 29.6623 18.8542 29.6623 18.8542C29.6623 18.835 29.643 18.8254 29.6045 18.8254C29.566 18.8446 29.5179 18.8831 29.4602 18.9409C29.4217 18.9986 29.3928 19.0467 29.3735 19.0852C29.3158 19.1815 29.2484 19.3066 29.1714 19.4606C29.0944 19.5954 28.9982 19.6916 28.8827 19.7494C28.7479 19.8264 28.6228 19.7782 28.5073 19.605C28.3918 19.4317 28.2955 19.3066 28.2185 19.2296C28.18 19.1911 28.1512 19.1719 28.1319 19.1719L27.872 19.4317C27.8143 19.4702 27.7565 19.5087 27.6988 19.5472C27.641 19.5857 27.5833 19.6242 27.5255 19.6627C27.41 19.7205 27.2849 19.7686 27.1502 19.8071C27.0347 19.8264 26.9192 19.8552 26.8037 19.8937C26.5727 19.9707 26.3417 20.0574 26.1107 20.1536C25.8989 20.2306 25.6775 20.2884 25.4465 20.3269C25.1578 20.3654 24.8883 20.3076 24.638 20.1536C24.3878 19.9804 24.1183 19.9034 23.8295 19.9226C23.56 19.9226 23.2905 19.913 23.021 19.8937C22.7708 19.8745 22.5109 19.8264 22.2414 19.7494C22.1644 19.7109 22.1163 19.6916 22.097 19.6916C22.0778 19.6916 22.0585 19.7012 22.0393 19.7205C22.02 19.7397 22.0008 19.7397 21.9815 19.7205C21.9623 19.7012 21.943 19.682 21.9238 19.6627C21.9238 19.6435 21.9045 19.6242 21.866 19.605C21.8468 19.5665 21.8179 19.528 21.7794 19.4895C21.7409 19.451 21.7217 19.4317 21.7217 19.4317C21.7024 19.4125 21.6735 19.3644 21.635 19.2874C21.5965 19.1719 21.5869 19.0564 21.6062 18.9409C21.6254 18.8061 21.6543 18.681 21.6928 18.5655C21.712 18.5077 21.7313 18.45 21.7505 18.3922C21.7698 18.3345 21.789 18.2671 21.8083 18.1901C22.0008 17.8244 22.2125 17.5067 22.4435 17.2372C22.6553 16.9677 22.9055 16.7079 23.1943 16.4576C23.5023 16.2074 23.8488 15.986 24.2338 15.7935C24.3878 15.6587 24.5707 15.5432 24.7824 15.447C24.9749 15.3507 25.177 15.2737 25.3888 15.216C25.6198 15.1582 25.8508 15.1101 26.0818 15.0716C26.5245 14.9561 27.0058 14.8695 27.5255 14.8117C28.0453 14.7347 28.6132 14.6962 29.2292 14.6962H29.8067C29.9222 14.6962 30.028 14.6962 30.1243 14.6962C30.2205 14.6962 30.2975 14.7059 30.3553 14.7251L30.5574 14.754H30.7018C30.952 14.754 31.1349 14.7829 31.2504 14.8406C31.5777 14.8599 31.9049 14.9176 32.2322 15.0139C32.4632 15.0524 32.6845 15.1005 32.8963 15.1583C33.1273 15.216 33.3294 15.293 33.5027 15.3892C33.7529 15.4662 33.9935 15.5817 34.2245 15.7357C34.4748 15.8897 34.6962 16.0437 34.8887 16.1977C34.8887 16.217 34.8887 16.2266 34.8887 16.2266C34.9079 16.2266 34.9175 16.2266 34.9175 16.2266C34.9753 16.2651 35.0234 16.3132 35.0619 16.371C35.1197 16.4095 35.1678 16.448 35.2063 16.4865C36.1303 17.3142 36.6789 18.4211 36.8522 19.8071C36.8714 19.8264 36.881 19.8552 36.881 19.8937C36.9388 20.298 36.958 20.7022 36.9388 21.1065C36.9388 21.5107 36.9388 21.915 36.9388 22.3192V28.2964C36.9388 28.3926 36.9388 28.4985 36.9388 28.614C36.958 28.7295 36.9677 28.845 36.9677 28.9605ZM30.0954 24.1384V23.7919C30.0954 23.7726 30.0762 23.7726 30.0377 23.7919C30.0184 23.7919 29.9895 23.8015 29.951 23.8207C29.9318 23.8207 29.9125 23.8207 29.8933 23.8207C29.8163 23.8592 29.7297 23.8977 29.6334 23.9362C29.5372 23.9555 29.4409 23.9844 29.3447 24.0229C29.1522 24.0999 28.95 24.1576 28.7383 24.1961C28.5458 24.2154 28.3437 24.2442 28.1319 24.2827C28.0357 24.302 27.9298 24.3309 27.8143 24.3694C27.6988 24.4079 27.5929 24.456 27.4967 24.5137C27.4197 24.5715 27.3619 24.6292 27.3234 24.687C27.1887 24.8602 27.1213 25.0335 27.1213 25.2067C27.1213 25.3415 27.1887 25.5147 27.3234 25.7265C27.3619 25.7457 27.4004 25.7746 27.4389 25.8131C27.4967 25.8324 27.5544 25.8612 27.6122 25.8997L27.7565 25.9575C28.0068 25.9767 28.1415 25.996 28.1608 26.0152C28.18 26.0152 28.2955 26.0056 28.5073 25.9864C29.335 25.8709 29.8355 25.3992 30.0088 24.5715C30.0473 24.456 30.0665 24.3501 30.0665 24.2539C30.0665 24.1961 30.0762 24.1576 30.0954 24.1384ZM46.152 29.1626C46.152 29.2589 46.1327 29.3647 46.0942 29.4802C46.0942 29.4802 46.075 29.5187 46.0365 29.5957L46.0076 29.6246C45.9883 29.6824 45.921 29.7594 45.8055 29.8556C45.7092 29.9326 45.6515 29.9807 45.6322 30L45.6033 30.0289C45.6033 30.0481 45.5937 30.0578 45.5745 30.0578C45.5745 30.0578 45.5745 30.0674 45.5745 30.0866C45.536 30.1829 45.4975 30.231 45.459 30.231C45.382 30.3465 45.305 30.462 45.228 30.5775C45.1702 30.693 45.0932 30.7989 44.997 30.8951C44.92 30.9914 44.8237 31.078 44.7082 31.155C44.612 31.232 44.5157 31.3186 44.4195 31.4149C44.3232 31.5111 44.2462 31.617 44.1885 31.7325C44.1692 31.7903 44.1403 31.8384 44.1018 31.8769C44.0826 31.9346 44.0633 31.9828 44.0441 32.0213C43.9093 32.2908 43.8227 32.5025 43.7842 32.6565C43.7457 32.8105 43.6398 33.0319 43.4666 33.3206C43.4473 33.3976 43.38 33.4746 43.2645 33.5516C43.2452 33.5901 43.2067 33.6864 43.149 33.8404C43.1105 33.9944 43.0335 34.0618 42.918 34.0425C42.8795 34.0425 42.8313 34.004 42.7736 33.927C42.7351 33.8693 42.7062 33.8308 42.687 33.8115C42.6292 33.7153 42.5811 33.619 42.5426 33.5228C42.5041 33.4265 42.4463 33.3399 42.3693 33.2629C42.3308 33.2244 42.302 33.1859 42.2827 33.1474C42.2057 33.0896 42.1191 33.003 42.0228 32.8875C42.0036 32.849 41.9747 32.8105 41.9362 32.772C41.917 32.7335 41.8881 32.7046 41.8496 32.6854C41.7148 32.5121 41.5993 32.3196 41.5031 32.1079C41.4068 31.9154 41.3106 31.7229 41.2143 31.5304C41.1951 31.4726 41.1758 31.4149 41.1566 31.3571C41.1373 31.2994 41.1085 31.2416 41.07 31.1839L40.8967 30.8374C40.762 30.6064 40.6176 30.4139 40.4636 30.2599C40.4636 30.3176 40.4443 30.3465 40.4058 30.3465C40.3866 30.3465 40.3673 30.3176 40.3481 30.2599C40.3288 30.2214 40.3096 30.1925 40.2903 30.1733C40.2903 30.154 40.2807 30.1348 40.2615 30.1155C40.2037 30.308 40.1652 30.5968 40.146 30.9818C40.1267 31.386 40.1171 31.7806 40.1171 32.1656C40.1363 32.5699 40.146 32.8875 40.146 33.1185C40.146 33.3495 40.1363 33.3976 40.1171 33.2629C40.0016 32.8201 39.9631 32.2811 40.0016 31.6459C40.0401 31.0299 40.0112 30.4716 39.915 29.9711C39.8765 29.9519 39.838 29.9326 39.7995 29.9134C39.7802 29.8941 39.7513 29.8749 39.7128 29.8556C39.5011 29.6824 39.3952 29.4899 39.3952 29.2781C39.376 29.0856 39.3663 28.8931 39.3663 28.7006C39.3856 28.5081 39.3952 28.3252 39.3952 28.152V10.9714C39.3952 10.7789 39.3856 10.5767 39.3663 10.365C39.3663 10.1532 39.4241 9.97037 39.5396 9.81637L39.7128 9.64312C39.8476 9.54687 40.0016 9.49875 40.1748 9.49875H44.997C45.0932 9.49875 45.1895 9.49875 45.2857 9.49875C45.4012 9.4795 45.5071 9.48912 45.6033 9.52762C45.6611 9.54687 45.7092 9.57575 45.7477 9.61425C45.8055 9.6335 45.8536 9.66237 45.8921 9.70087C45.9306 9.73937 45.9691 9.79712 46.0076 9.87412C46.0846 9.97037 46.1231 10.1051 46.1231 10.2784V28.2964C46.1231 28.4311 46.1327 28.5755 46.152 28.7295C46.1712 28.8642 46.1712 29.0086 46.152 29.1626ZM64.2636 28.9605C64.2636 29.0375 64.2539 29.0952 64.2347 29.1337C64.2347 29.384 64.1866 29.5669 64.0903 29.6824C64.0711 29.7209 64.0326 29.769 63.9748 29.8267C63.9171 29.8652 63.8593 29.9037 63.8016 29.9422C63.5898 30.154 63.4936 30.3273 63.5128 30.462C63.5321 30.5968 63.5898 30.7123 63.6861 30.8085C63.7823 30.9048 63.8401 31.0203 63.8593 31.155C63.8786 31.2898 63.7823 31.463 63.5706 31.6748C63.5513 31.7325 63.5321 31.7903 63.5128 31.848C63.5128 31.925 63.4936 31.9828 63.4551 32.0213C63.4358 32.0405 63.3973 31.9924 63.3396 31.8769C63.3203 31.7806 63.3011 31.6748 63.2818 31.5593C63.2626 31.4438 63.2433 31.3283 63.2241 31.2128C63.2048 30.8855 63.1952 30.693 63.1952 30.6353C63.2144 30.5968 63.1759 30.4716 63.0797 30.2599L62.9642 30.3754C62.9064 30.4331 62.8487 30.4813 62.7909 30.5198C62.7524 30.5583 62.7043 30.616 62.6466 30.693C62.5696 30.8085 62.4926 30.924 62.4156 31.0395C62.3386 31.155 62.2616 31.2705 62.1846 31.386C62.1653 31.4053 62.1364 31.4534 62.0979 31.5304C62.0594 31.6074 62.0209 31.6555 61.9824 31.6748C61.8862 31.7133 61.8092 31.6651 61.7514 31.5304C61.6937 31.3956 61.6456 31.309 61.6071 31.2705C61.5878 31.2128 61.5686 31.155 61.5493 31.0973C61.5493 31.0395 61.5301 30.9818 61.4916 30.924C61.4531 30.9048 61.3953 30.8566 61.3183 30.7796C61.2798 30.7411 61.2509 30.7026 61.2317 30.6641L60.9429 30.3176L60.7986 30.1733C60.7601 30.1925 60.7119 30.1829 60.6542 30.1444C60.5964 30.1059 60.5483 30.077 60.5098 30.0578C60.4136 30.154 60.3654 30.2118 60.3654 30.231C60.2114 30.3658 60.0767 30.5198 59.9612 30.693C59.8649 30.8855 59.7687 31.078 59.6724 31.2705C59.6532 31.309 59.6147 31.3571 59.5569 31.4149C59.5184 31.4726 59.4703 31.5208 59.4126 31.5593C59.3741 31.5978 59.3452 31.617 59.3259 31.617C59.3067 31.7325 59.2874 31.848 59.2682 31.9635C59.2682 32.0983 59.2489 32.2234 59.2104 32.3389C59.1912 32.3581 59.1623 32.3485 59.1238 32.31C59.1046 32.2908 59.0949 32.2715 59.0949 32.2523C59.0564 32.0983 59.0372 31.9828 59.0372 31.9057C59.0564 31.848 59.0276 31.7036 58.9506 31.4726C58.9313 31.4726 58.9121 31.463 58.8928 31.4438C58.8928 31.4245 58.8736 31.3956 58.8351 31.3571C58.8351 31.3186 58.8158 31.2898 58.7773 31.2705C58.7581 31.2513 58.7484 31.2416 58.7484 31.2416L58.4886 30.8085L58.1421 30.2599C58.1228 30.1829 58.0939 30.1059 58.0554 30.0289C58.0169 29.9711 57.9784 29.9134 57.9399 29.8556L57.9111 29.8267C57.8341 29.769 57.7571 29.6727 57.6801 29.538C57.6801 29.5187 57.6704 29.5091 57.6512 29.5091C57.6512 29.4899 57.6512 29.4706 57.6512 29.4514C57.6319 29.3551 57.6223 29.2492 57.6223 29.1337C57.6223 28.999 57.6223 28.8354 57.6223 28.6429V28.4119C57.5838 28.4504 57.5549 28.4889 57.5357 28.5274L57.4491 28.614C57.2758 28.8257 57.0833 29.0182 56.8716 29.1915C56.7946 29.384 56.7368 29.5861 56.6983 29.7979C56.6598 29.9904 56.5924 30.1829 56.4962 30.3754C56.4769 30.4524 56.4384 30.5294 56.3807 30.6064C56.3422 30.7026 56.2844 30.7796 56.2074 30.8374C56.1882 30.8566 56.1304 30.8759 56.0342 30.8951C55.9572 30.9144 55.9091 30.9144 55.8898 30.8951C55.8706 30.8374 55.8609 30.77 55.8609 30.693C55.8609 30.6353 55.8609 30.5775 55.8609 30.5198C55.8417 30.5775 55.8128 30.6256 55.7743 30.6641C55.7551 30.7219 55.7262 30.77 55.6877 30.8085C55.6684 30.847 55.6396 30.8759 55.6011 30.8951C55.5626 30.9336 55.5241 30.9721 55.4856 31.0106C55.4278 31.3186 55.3797 31.6074 55.3412 31.8769C55.3219 32.1656 55.2931 32.464 55.2546 32.772C55.2353 32.849 55.2161 32.926 55.1968 33.003C55.1776 33.0993 55.1487 33.1955 55.1102 33.2918C55.1102 33.388 55.0813 33.465 55.0236 33.5228C55.0043 33.542 54.9658 33.5228 54.9081 33.465C54.8888 33.4265 54.8696 33.3784 54.8503 33.3206C54.8311 33.2821 54.8118 33.2436 54.7926 33.2051C54.7733 33.1089 54.7348 32.9453 54.6771 32.7143C54.6193 32.5025 54.5712 32.3581 54.5327 32.2811C54.5134 32.2041 54.4942 32.1175 54.4749 32.0213C54.4557 31.9442 54.4364 31.8673 54.4172 31.7903C54.3979 31.7325 54.3787 31.6651 54.3594 31.5881C54.3594 31.5304 54.3402 31.463 54.3017 31.386L54.2151 31.2994C54.1573 31.2224 54.0996 31.1358 54.0418 31.0395C53.9841 30.9625 53.9263 30.8855 53.8686 30.8085C53.8493 30.7508 53.8204 30.693 53.7819 30.6353C53.7434 30.5968 53.7049 30.539 53.6664 30.462C53.6472 30.4235 53.6279 30.385 53.6087 30.3465C53.5894 30.3273 53.5606 30.308 53.5221 30.2888H53.2911C52.0398 30.2503 50.9618 29.9519 50.0571 29.3936C49.1716 28.8354 48.5556 28.1231 48.2091 27.2569C48.1898 27.1991 48.1706 27.1414 48.1513 27.0836C48.1321 27.0259 48.1128 26.9681 48.0936 26.9104C48.0936 26.8911 48.0839 26.8719 48.0647 26.8526C48.0647 26.8334 48.0647 26.8141 48.0647 26.7949C48.0454 26.6986 48.0262 26.612 48.0069 26.535C47.9877 26.4387 47.9684 26.3521 47.9492 26.2751C47.9299 26.1596 47.9203 26.0441 47.9203 25.9286C47.9203 25.7939 47.9203 25.6687 47.9203 25.5532C47.9203 25.4762 47.9203 25.4089 47.9203 25.3511C47.9396 25.2934 47.9492 25.226 47.9492 25.149L47.9781 24.9469C48.0358 24.6389 48.1224 24.3597 48.2379 24.1095C48.5074 23.4935 48.9213 22.9641 49.4796 22.5214C49.5951 22.4251 49.7106 22.3385 49.8261 22.2615C49.9416 22.1845 50.0667 22.1075 50.2014 22.0305L50.5768 21.8284C50.6153 21.7899 50.6634 21.7514 50.7212 21.7129C50.7789 21.6744 50.8367 21.6455 50.8944 21.6262C50.9329 21.5877 50.9811 21.5589 51.0388 21.5396C51.0966 21.5204 51.1543 21.5011 51.2121 21.4819C51.4238 21.3856 51.6356 21.3086 51.8473 21.2509C52.0783 21.1931 52.3093 21.1354 52.5403 21.0776C52.8098 21.0006 53.0793 20.9332 53.3488 20.8755C53.6376 20.8177 53.9359 20.76 54.2439 20.7022L54.9369 20.5867C55.2064 20.5482 55.4663 20.5097 55.7166 20.4712C55.9861 20.4135 56.2556 20.3654 56.5251 20.3269C56.6021 20.3269 56.6502 20.3172 56.6694 20.298L57.3047 20.1825V19.7205C57.3047 19.7975 57.2951 19.7782 57.2758 19.6627C57.2758 19.5472 57.2758 19.4799 57.2758 19.4606C57.2758 19.4799 57.2662 19.4606 57.2469 19.4029C57.2469 19.3259 57.2469 19.297 57.2469 19.3162C57.2469 19.297 57.2373 19.2777 57.2181 19.2585C57.2181 19.2392 57.2181 19.22 57.2181 19.2007C57.1796 19.0852 57.1026 18.9697 56.9871 18.8542C56.9678 18.8542 56.9582 18.8542 56.9582 18.8542C56.9582 18.835 56.9389 18.8254 56.9004 18.8254C56.8619 18.8446 56.8138 18.8831 56.7561 18.9409C56.7176 18.9986 56.6887 19.0467 56.6694 19.0852C56.6117 19.1815 56.5443 19.3066 56.4673 19.4606C56.3903 19.5954 56.2941 19.6916 56.1786 19.7494C56.0438 19.8264 55.9187 19.7782 55.8032 19.605C55.6877 19.4317 55.5914 19.3066 55.5144 19.2296C55.4759 19.1911 55.4471 19.1719 55.4278 19.1719L55.1679 19.4317C55.1102 19.4702 55.0524 19.5087 54.9947 19.5472C54.9369 19.5857 54.8792 19.6242 54.8214 19.6627C54.7059 19.7205 54.5808 19.7686 54.4461 19.8071C54.3306 19.8264 54.2151 19.8552 54.0996 19.8937C53.8686 19.9707 53.6376 20.0574 53.4066 20.1536C53.1948 20.2306 52.9734 20.2884 52.7424 20.3269C52.4537 20.3654 52.1842 20.3076 51.9339 20.1536C51.6837 19.9804 51.4142 19.9034 51.1254 19.9226C50.8559 19.9226 50.5864 19.913 50.3169 19.8937C50.0667 19.8745 49.8068 19.8264 49.5373 19.7494C49.4603 19.7109 49.4122 19.6916 49.3929 19.6916C49.3737 19.6916 49.3544 19.7012 49.3352 19.7205C49.3159 19.7397 49.2967 19.7397 49.2774 19.7205C49.2582 19.7012 49.2389 19.682 49.2197 19.6627C49.2197 19.6435 49.2004 19.6242 49.1619 19.605C49.1427 19.5665 49.1138 19.528 49.0753 19.4895C49.0368 19.451 49.0176 19.4317 49.0176 19.4317C48.9983 19.4125 48.9694 19.3644 48.9309 19.2874C48.8924 19.1719 48.8828 19.0564 48.9021 18.9409C48.9213 18.8061 48.9502 18.681 48.9887 18.5655C49.0079 18.5077 49.0272 18.45 49.0464 18.3922C49.0657 18.3345 49.0849 18.2671 49.1042 18.1901C49.2967 17.8244 49.5084 17.5067 49.7394 17.2372C49.9512 16.9677 50.2014 16.7079 50.4902 16.4576C50.7982 16.2074 51.1447 15.986 51.5297 15.7935C51.6837 15.6587 51.8666 15.5432 52.0783 15.447C52.2708 15.3507 52.4729 15.2737 52.6847 15.216C52.9157 15.1582 53.1467 15.1101 53.3777 15.0716C53.8204 14.9561 54.3017 14.8695 54.8214 14.8117C55.3412 14.7347 55.9091 14.6962 56.5251 14.6962H57.1026C57.2181 14.6962 57.3239 14.6962 57.4202 14.6962C57.5164 14.6962 57.5934 14.7059 57.6512 14.7251L57.8533 14.754H57.9977C58.2479 14.754 58.4308 14.7829 58.5463 14.8406C58.8736 14.8599 59.2008 14.9176 59.5281 15.0139C59.7591 15.0524 59.9804 15.1005 60.1922 15.1583C60.4232 15.216 60.6253 15.293 60.7986 15.3892C61.0488 15.4662 61.2894 15.5817 61.5204 15.7357C61.7707 15.8897 61.9921 16.0437 62.1846 16.1977C62.1846 16.217 62.1846 16.2266 62.1846 16.2266C62.2038 16.2266 62.2134 16.2266 62.2134 16.2266C62.2712 16.2651 62.3193 16.3132 62.3578 16.371C62.4156 16.4095 62.4637 16.448 62.5022 16.4865C63.4262 17.3142 63.9748 18.4211 64.1481 19.8071C64.1673 19.8264 64.1769 19.8552 64.1769 19.8937C64.2347 20.298 64.2539 20.7022 64.2347 21.1065C64.2347 21.5107 64.2347 21.915 64.2347 22.3192V28.2964C64.2347 28.3926 64.2347 28.4985 64.2347 28.614C64.2539 28.7295 64.2636 28.845 64.2636 28.9605ZM57.3913 24.1384V23.7919C57.3913 23.7726 57.3721 23.7726 57.3336 23.7919C57.3143 23.7919 57.2854 23.8015 57.2469 23.8207C57.2277 23.8207 57.2084 23.8207 57.1892 23.8207C57.1122 23.8592 57.0256 23.8977 56.9293 23.9362C56.8331 23.9555 56.7368 23.9844 56.6406 24.0229C56.4481 24.0999 56.2459 24.1576 56.0342 24.1961C55.8417 24.2154 55.6396 24.2442 55.4278 24.2827C55.3316 24.302 55.2257 24.3309 55.1102 24.3694C54.9947 24.4079 54.8888 24.456 54.7926 24.5137C54.7156 24.5715 54.6578 24.6292 54.6193 24.687C54.4846 24.8602 54.4172 25.0335 54.4172 25.2067C54.4172 25.3415 54.4846 25.5147 54.6193 25.7265C54.6578 25.7457 54.6963 25.7746 54.7348 25.8131C54.7926 25.8324 54.8503 25.8612 54.9081 25.8997L55.0524 25.9575C55.3027 25.9767 55.4374 25.996 55.4567 26.0152C55.4759 26.0152 55.5914 26.0056 55.8032 25.9864C56.6309 25.8709 57.1314 25.3992 57.3047 24.5715C57.3432 24.456 57.3624 24.3501 57.3624 24.2539C57.3624 24.1961 57.3721 24.1576 57.3913 24.1384ZM88.5206 29.3647C88.5013 29.384 88.4917 29.4129 88.4917 29.4514C88.4917 29.4706 88.4821 29.4899 88.4628 29.5091C88.4243 29.5861 88.4051 29.6246 88.4051 29.6246C88.3859 29.7016 88.357 29.7497 88.3185 29.769C88.28 29.7882 88.2415 29.8171 88.203 29.8556L88.0875 29.9422C88.0297 30.1925 87.9816 30.4331 87.9431 30.6641C87.9238 30.9144 87.895 31.1646 87.8565 31.4149C87.8372 31.5111 87.818 31.6555 87.7987 31.848C87.7987 32.0405 87.7795 32.0886 87.741 31.9924C87.6832 31.7421 87.6543 31.4919 87.6543 31.2416C87.6736 30.9914 87.664 30.7411 87.6255 30.4909C87.6255 30.4716 87.6062 30.4716 87.5677 30.4909C87.5485 30.5294 87.5292 30.5486 87.51 30.5486C87.4715 30.5679 87.4234 30.5968 87.3656 30.6353C87.3078 30.6738 87.2405 30.6834 87.1635 30.6641C87.1442 30.6641 87.1153 30.6449 87.0768 30.6064C86.9228 30.6064 86.7592 30.539 86.586 30.4043C86.5667 30.462 86.5571 30.5294 86.5571 30.6064C86.5763 30.7026 86.5571 30.77 86.4993 30.8085C86.4416 30.847 86.4127 30.8181 86.4127 30.7219C86.4127 30.6256 86.4031 30.5486 86.3839 30.4909C86.3839 30.4909 86.3742 30.4043 86.355 30.231C86.355 30.077 86.2683 30.0385 86.0951 30.1155C86.0758 30.1348 86.047 30.1636 86.0085 30.2021C85.9892 30.2406 85.9507 30.2888 85.893 30.3465C85.8352 30.4235 85.7678 30.4909 85.6908 30.5486C85.6716 30.5679 85.6427 30.5968 85.6042 30.6353C85.585 30.693 85.5561 30.7411 85.5176 30.7796C85.4598 30.8181 85.4021 30.8085 85.3443 30.7508C85.3058 30.7123 85.2673 30.6834 85.2288 30.6641C85.2096 30.6641 85.1615 30.6738 85.0845 30.693C85.0267 30.7315 84.9978 30.7604 84.9978 30.7796C84.9978 30.7796 84.9882 30.7796 84.969 30.7796C84.969 30.7796 84.969 30.7893 84.969 30.8085C84.969 30.8085 84.9497 30.8278 84.9112 30.8663C84.7957 31.001 84.7091 31.155 84.6514 31.3283C84.5936 31.5208 84.5262 31.694 84.4492 31.848C84.4107 31.925 84.3626 32.0116 84.3048 32.1079C84.2664 32.2234 84.199 32.31 84.1027 32.3678C84.0835 32.618 84.0642 32.8683 84.045 33.1185C84.045 33.3688 84.0257 33.619 83.9872 33.8693C83.968 33.927 83.9487 34.0136 83.9295 34.1291C83.9295 34.2446 83.9102 34.2735 83.8717 34.2158C83.814 34.1003 83.7851 33.9751 83.7851 33.8404C83.7851 33.7249 83.7755 33.5998 83.7562 33.465C83.737 33.2533 83.7274 33.0511 83.7274 32.8586C83.7274 32.6661 83.7081 32.4736 83.6696 32.2811C83.5541 32.1849 83.4675 32.0983 83.4097 32.0213C83.3327 31.9058 83.2461 31.7806 83.1498 31.6459C83.0728 31.5111 82.9862 31.3764 82.89 31.2416C82.813 31.1069 82.736 30.9818 82.659 30.8663C82.6012 30.7508 82.5338 30.6353 82.4568 30.5198C82.4376 30.4813 82.4087 30.4428 82.3702 30.4043L82.2836 30.2599H82.2547C82.2355 30.2599 82.2066 30.2118 82.1681 30.1155C82.1488 30.0385 82.12 29.9711 82.0815 29.9134C82.1777 30.0096 82.2066 30.0385 82.1681 30C82.1488 29.9615 82.1007 29.9037 82.0237 29.8267C81.966 29.7497 81.9275 29.7112 81.9082 29.7112L81.8793 29.6824L81.7927 29.538C81.7927 29.5187 81.7831 29.5091 81.7638 29.5091C81.7638 29.4899 81.7638 29.4706 81.7638 29.4514C81.7061 29.2974 81.6868 29.1241 81.7061 28.9316C81.7253 28.7199 81.735 28.537 81.735 28.383V21.5396C81.735 21.8669 81.7446 22.0209 81.7638 22.0016C81.7831 21.9824 81.8023 21.8957 81.8216 21.7417C81.8408 21.5877 81.8408 21.4626 81.8216 21.3664C81.8023 21.2509 81.7542 21.2701 81.6772 21.4241L81.5617 21.5974C81.5232 21.6359 81.504 21.6647 81.504 21.684C81.5232 21.684 81.5136 21.7032 81.4751 21.7417C81.4751 21.7417 81.4655 21.7514 81.4462 21.7706C81.4462 21.7706 81.4462 21.7802 81.4462 21.7995C81.35 21.9342 81.2537 22.0786 81.1575 22.2326C81.0805 22.3866 80.9938 22.5406 80.8976 22.6946C80.7436 22.9449 80.5896 23.2047 80.4356 23.4742C80.2816 23.7437 80.118 24.0036 79.9447 24.2539C79.9255 24.3116 79.8966 24.3694 79.8581 24.4271C79.8196 24.4849 79.7811 24.533 79.7426 24.5715C79.6848 24.6485 79.6175 24.7255 79.5405 24.8025C79.4827 24.8795 79.4057 24.9372 79.3095 24.9757C79.2902 24.995 79.2613 25.0239 79.2228 25.0624C79.2036 25.1009 79.1651 25.1682 79.1073 25.2645C79.0881 25.2837 79.0592 25.2934 79.0207 25.2934C79.0015 25.5051 78.9822 25.8324 78.963 26.2751C78.963 26.6986 78.9533 27.1606 78.9341 27.6611C78.9341 28.1616 78.9245 28.6332 78.9052 29.076C78.9052 29.4995 78.8956 29.8171 78.8763 30.0289C78.8763 30.0481 78.8571 30.0578 78.8186 30.0578C78.7801 30.0578 78.7608 30.0481 78.7608 30.0289C78.7416 29.7594 78.7223 29.3359 78.7031 28.7584C78.7031 28.1809 78.7031 27.5937 78.7031 26.997C78.7031 26.4002 78.6838 25.9286 78.6453 25.5821C78.6453 25.5821 78.6165 25.5532 78.5587 25.4955L78.5298 25.5244C78.5298 25.5244 78.5298 25.534 78.5298 25.5532C78.5298 25.5532 78.5202 25.5532 78.501 25.5532C78.501 25.5917 78.4817 25.6302 78.4432 25.6687C78.4047 25.7457 78.3566 25.8227 78.2988 25.8997C78.2411 25.9575 78.1737 26.0056 78.0967 26.0441C78.0582 26.1404 78.0486 26.2655 78.0678 26.4195C78.0871 26.5735 78.0486 26.6409 77.9523 26.6216C77.8561 26.5831 77.8272 26.4965 77.8657 26.3617C77.9042 26.2077 77.9042 26.073 77.8657 25.9575C77.8272 25.919 77.7887 25.8709 77.7502 25.8131C77.7117 25.7554 77.6732 25.7169 77.6347 25.6976C77.577 25.6399 77.5481 25.611 77.5481 25.611C77.5288 25.688 77.5 25.765 77.4615 25.842C77.4422 25.919 77.423 25.9767 77.4037 26.0152C77.4037 25.919 77.3748 25.8035 77.3171 25.6687C77.2786 25.7072 77.2593 25.7361 77.2593 25.7554C77.2593 25.7554 77.2401 25.7746 77.2016 25.8131C77.1631 25.8709 77.1246 25.9382 77.0861 26.0152C77.0476 26.0922 77.0091 26.1596 76.9706 26.2174C76.9513 26.2366 76.9128 26.2751 76.8551 26.3329C76.8166 26.3714 76.7781 26.381 76.7396 26.3617C76.7011 26.3425 76.6722 26.3232 76.653 26.304C76.6337 26.2655 76.6048 26.2366 76.5663 26.2174C76.4701 26.1211 76.4027 25.9767 76.3642 25.7842C76.3257 25.6495 76.2872 25.5244 76.2487 25.4089C76.2295 25.2741 76.2006 25.1394 76.1621 25.0046C76.0851 24.9661 76.0177 24.918 75.96 24.8602C75.9215 24.7832 75.8733 24.7159 75.8156 24.6581L75.6712 24.4271C75.5172 24.1769 75.3632 23.9266 75.2092 23.6764C75.0552 23.4069 74.9012 23.147 74.7472 22.8967L74.4873 22.4636C74.4296 22.3866 74.3718 22.3096 74.3141 22.2326C74.2756 22.1556 74.2275 22.0786 74.1697 22.0016L74.0831 21.8284C74.0638 21.7899 74.0446 21.7514 74.0253 21.7129C74.0061 21.6744 73.9772 21.6359 73.9387 21.5974C73.9387 21.5781 73.9291 21.5685 73.9098 21.5685C73.9098 21.5685 73.9098 21.5589 73.9098 21.5396C73.9098 21.5396 73.8906 21.5204 73.8521 21.4819C73.8521 21.3856 73.8328 21.3182 73.7943 21.2797C73.7751 21.222 73.7655 21.2701 73.7655 21.4241V28.7584C73.7655 28.8546 73.7655 28.9605 73.7655 29.076C73.7847 29.1722 73.7847 29.2685 73.7655 29.3647C73.7655 29.3262 73.7558 29.3455 73.7366 29.4225C73.7173 29.4802 73.7173 29.4995 73.7366 29.4802C73.7173 29.5572 73.6692 29.6342 73.5922 29.7112L73.419 29.8845C73.3997 29.9615 73.3805 30.0385 73.3612 30.1155C73.3612 30.2118 73.342 30.308 73.3035 30.4043C73.265 30.6545 73.2168 30.8951 73.1591 31.1261C73.1206 31.3764 73.0628 31.6266 72.9858 31.8769C72.9666 31.9346 72.9377 32.0309 72.8992 32.1656C72.8607 32.3004 72.8222 32.3966 72.7837 32.4544C72.6682 32.5699 72.5816 32.5314 72.5238 32.3389C72.4661 32.1656 72.4276 32.0694 72.4083 32.0501C72.3698 31.8961 72.3313 31.7325 72.2928 31.5593C72.2543 31.4053 72.2158 31.2416 72.1773 31.0684C72.1581 30.9721 72.1485 30.8759 72.1485 30.7796C72.1485 30.6834 72.1292 30.5968 72.0907 30.5198C72.0522 30.5583 72.0041 30.5968 71.9463 30.6353C71.8886 30.693 71.8308 30.7411 71.7731 30.7796C71.7346 31.1454 71.7057 31.5208 71.6865 31.9057C71.6865 32.31 71.6672 32.7046 71.6287 33.0896C71.6287 33.1089 71.6095 33.0993 71.571 33.0608C71.5325 33.0223 71.5132 32.9934 71.5132 32.9741C71.34 32.6854 71.2822 32.4159 71.34 32.1656C71.3977 31.9346 71.4555 31.694 71.5132 31.4438C71.5902 31.1935 71.5421 30.9336 71.3688 30.6641C71.3496 30.6256 71.3303 30.5871 71.3111 30.5486C71.2918 30.5101 71.263 30.4716 71.2245 30.4331C71.186 30.4331 71.1667 30.4331 71.1667 30.4331C71.1282 30.7411 71.109 31.0395 71.109 31.3283C71.109 31.6363 71.0897 31.9346 71.0512 32.2234C71.0512 32.2234 71.0127 32.2234 70.9357 32.2234C70.8587 32.2234 70.8202 32.2138 70.8202 32.1945C70.801 31.9058 70.7817 31.6074 70.7625 31.2994C70.7625 31.0106 70.7432 30.7123 70.7047 30.4043H70.5603L70.5315 30.3754C70.493 30.3754 70.4737 30.3754 70.4737 30.3754C70.4545 30.6256 70.4448 30.8663 70.4448 31.0973C70.4448 31.3475 70.4256 31.5978 70.3871 31.848C70.3871 31.8673 70.3486 31.8384 70.2716 31.7614C70.1946 31.7229 70.1561 31.694 70.1561 31.6748C70.1176 31.463 70.0983 31.2609 70.0983 31.0684C70.0983 30.8759 70.0887 30.6834 70.0695 30.4909C70.0502 30.5101 70.031 30.539 70.0117 30.5775C69.9925 30.616 69.9925 30.616 70.0117 30.5775C69.9925 30.6353 69.954 30.693 69.8962 30.7508C69.877 30.77 69.8481 30.7893 69.8096 30.8085C69.7711 30.847 69.7326 30.8855 69.6941 30.924C69.6363 31.0395 69.5978 31.155 69.5786 31.2705C69.5593 31.4053 69.5208 31.54 69.4631 31.6748C69.4438 31.694 69.4246 31.7229 69.4053 31.7614C69.4053 31.7999 69.3861 31.8384 69.3476 31.8769C69.3091 31.9154 69.2706 31.9154 69.2321 31.8769C69.1551 31.7999 69.107 31.6651 69.0877 31.4726C69.0685 31.2801 69.0396 31.155 69.0011 31.0973C68.9048 31.001 68.8182 30.8759 68.7412 30.7219C68.6835 30.5871 68.6065 30.4235 68.5102 30.231C68.491 30.2695 68.4813 30.2984 68.4813 30.3176C68.4813 30.3561 68.4717 30.3946 68.4525 30.4331C68.4332 30.4524 68.3851 30.4428 68.3081 30.4043C68.2503 30.385 68.2215 30.3754 68.2215 30.3754C68.1445 30.3369 68.0867 30.2984 68.0482 30.2599C68.0675 30.2984 68.0771 30.3658 68.0771 30.462C68.0771 30.5583 68.0386 30.7123 67.9616 30.924C67.9423 31.001 67.9231 31.0684 67.9038 31.1261C67.8846 31.1839 67.8653 31.2513 67.8461 31.3283C67.8268 31.54 67.8172 31.8673 67.8172 32.31C67.8172 32.772 67.8172 33.2533 67.8172 33.7538C67.8172 34.2735 67.8172 34.7548 67.8172 35.1975C67.8172 35.6595 67.798 35.9964 67.7595 36.2081C67.7402 36.4006 67.721 36.4295 67.7017 36.2948C67.7017 36.16 67.7017 35.929 67.7017 35.6018C67.7017 35.2745 67.7017 34.9376 67.7017 34.5911C67.7017 34.2446 67.7017 33.9751 67.7017 33.7826C67.6825 33.2051 67.6728 32.7239 67.6728 32.3389C67.6728 31.9731 67.6632 31.6074 67.644 31.2416C67.6247 30.8951 67.5766 30.4716 67.4996 29.9711C67.4226 29.9326 67.3552 29.8941 67.2975 29.8556C67.0857 29.7016 66.9798 29.4899 66.9798 29.2204V10.5671C66.9798 10.3554 67.0568 10.1725 67.2108 10.0185C67.3648 9.8645 67.5766 9.7875 67.8461 9.7875H71.7442C71.956 9.7875 72.1581 9.7875 72.3506 9.7875C72.5431 9.76825 72.726 9.80675 72.8992 9.903C73.111 9.99925 73.2746 10.134 73.3901 10.3072C73.5248 10.4805 73.6403 10.6634 73.7366 10.8559C73.7751 10.8944 73.804 10.9425 73.8232 11.0002C73.8617 11.0387 73.8906 11.0869 73.9098 11.1446L74.0542 11.3756C74.2275 11.5874 74.3911 11.8376 74.5451 12.1264C74.7183 12.3959 74.882 12.6846 75.036 12.9926L76.0466 14.6674C76.2776 15.0139 76.499 15.37 76.7107 15.7357C76.9225 16.1015 77.1342 16.4576 77.346 16.8041C77.3845 16.8811 77.4326 16.9677 77.4903 17.064C77.5481 17.141 77.5962 17.2276 77.6347 17.3239L77.7502 17.4971L77.8657 17.295C77.9042 17.1987 77.9523 17.1121 78.0101 17.0351C78.0678 16.9581 78.116 16.8811 78.1545 16.8041C78.3277 16.5346 78.501 16.2555 78.6742 15.9667C78.8475 15.678 79.0207 15.3892 79.194 15.1005L79.3961 14.754C79.3961 14.7347 79.3961 14.7251 79.3961 14.7251C79.4153 14.7251 79.425 14.7155 79.425 14.6962C79.425 14.6962 79.4442 14.677 79.4827 14.6385L80.4645 12.9926C80.4837 12.9926 80.4933 12.9926 80.4933 12.9926C80.4933 12.9734 80.4933 12.9637 80.4933 12.9637C80.6473 12.675 80.8013 12.3959 80.9553 12.1264C81.1286 11.8569 81.2826 11.6162 81.4173 11.4045L81.5906 11.1157C81.6868 10.9617 81.7735 10.8174 81.8505 10.6826C81.9467 10.5286 82.0526 10.3842 82.1681 10.2495C82.1681 10.2302 82.1777 10.2206 82.197 10.2206C82.2932 10.0859 82.428 9.98 82.6012 9.903C82.7745 9.80675 82.9573 9.76825 83.1498 9.7875C83.3616 9.7875 83.5637 9.7875 83.7562 9.7875H87.741C87.8565 9.7875 87.9431 9.80675 88.0009 9.84525C88.0586 9.8645 88.126 9.89337 88.203 9.93187C88.3762 10.0474 88.4821 10.2399 88.5206 10.5094C88.5399 10.6441 88.5399 10.7885 88.5206 10.9425C88.5206 11.0965 88.5206 11.2409 88.5206 11.3756V27.9499C88.5206 28.1809 88.5302 28.4215 88.5495 28.6717C88.5687 28.9027 88.5591 29.1337 88.5206 29.3647ZM106.956 28.9605C106.956 29.0375 106.946 29.0952 106.927 29.1337C106.927 29.384 106.879 29.5669 106.782 29.6824C106.763 29.7209 106.725 29.769 106.667 29.8267C106.609 29.8652 106.551 29.9037 106.494 29.9422C106.282 30.154 106.186 30.3273 106.205 30.462C106.224 30.5968 106.282 30.7123 106.378 30.8085C106.474 30.9048 106.532 31.0203 106.551 31.155C106.571 31.2898 106.474 31.463 106.263 31.6748C106.243 31.7325 106.224 31.7903 106.205 31.848C106.205 31.925 106.186 31.9828 106.147 32.0213C106.128 32.0405 106.089 31.9924 106.032 31.8769C106.012 31.7806 105.993 31.6748 105.974 31.5593C105.955 31.4438 105.935 31.3283 105.916 31.2128C105.897 30.8855 105.887 30.693 105.887 30.6353C105.907 30.5968 105.868 30.4716 105.772 30.2599L105.656 30.3754C105.599 30.4331 105.541 30.4813 105.483 30.5198C105.445 30.5583 105.396 30.616 105.339 30.693C105.262 30.8085 105.185 30.924 105.108 31.0395C105.031 31.155 104.954 31.2705 104.877 31.386C104.857 31.4053 104.829 31.4534 104.79 31.5304C104.752 31.6074 104.713 31.6555 104.675 31.6748C104.578 31.7133 104.501 31.6651 104.444 31.5304C104.386 31.3956 104.338 31.309 104.299 31.2705C104.28 31.2128 104.261 31.155 104.241 31.0973C104.241 31.0395 104.222 30.9818 104.184 30.924C104.145 30.9048 104.087 30.8566 104.01 30.7796C103.972 30.7411 103.943 30.7026 103.924 30.6641L103.635 30.3176L103.491 30.1733C103.452 30.1925 103.404 30.1829 103.346 30.1444C103.289 30.1059 103.24 30.077 103.202 30.0578C103.106 30.154 103.058 30.2118 103.058 30.231C102.904 30.3658 102.769 30.5198 102.653 30.693C102.557 30.8855 102.461 31.078 102.365 31.2705C102.345 31.309 102.307 31.3571 102.249 31.4149C102.211 31.4726 102.162 31.5208 102.105 31.5593C102.066 31.5978 102.037 31.617 102.018 31.617C101.999 31.7325 101.98 31.848 101.96 31.9635C101.96 32.0983 101.941 32.2234 101.903 32.3389C101.883 32.3581 101.854 32.3485 101.816 32.31C101.797 32.2908 101.787 32.2715 101.787 32.2523C101.749 32.0983 101.729 31.9828 101.729 31.9057C101.749 31.848 101.72 31.7036 101.643 31.4726C101.623 31.4726 101.604 31.463 101.585 31.4438C101.585 31.4245 101.566 31.3956 101.527 31.3571C101.527 31.3186 101.508 31.2898 101.469 31.2705C101.45 31.2513 101.441 31.2416 101.441 31.2416L101.181 30.8085L100.834 30.2599C100.815 30.1829 100.786 30.1059 100.748 30.0289C100.709 29.9711 100.671 29.9134 100.632 29.8556L100.603 29.8267C100.526 29.769 100.449 29.6727 100.372 29.538C100.372 29.5187 100.363 29.5091 100.343 29.5091C100.343 29.4899 100.343 29.4706 100.343 29.4514C100.324 29.3551 100.314 29.2492 100.314 29.1337C100.314 28.999 100.314 28.8354 100.314 28.6429V28.4119C100.276 28.4504 100.247 28.4889 100.228 28.5274L100.141 28.614C99.968 28.8257 99.7755 29.0182 99.5637 29.1915C99.4867 29.384 99.429 29.5861 99.3905 29.7979C99.352 29.9904 99.2846 30.1829 99.1883 30.3754C99.1691 30.4524 99.1306 30.5294 99.0728 30.6064C99.0343 30.7026 98.9766 30.7796 98.8996 30.8374C98.8803 30.8566 98.8226 30.8759 98.7263 30.8951C98.6493 30.9144 98.6012 30.9144 98.582 30.8951C98.5627 30.8374 98.5531 30.77 98.5531 30.693C98.5531 30.6353 98.5531 30.5775 98.5531 30.5198C98.5338 30.5775 98.505 30.6256 98.4665 30.6641C98.4472 30.7219 98.4183 30.77 98.3798 30.8085C98.3606 30.847 98.3317 30.8759 98.2932 30.8951C98.2547 30.9336 98.2162 30.9721 98.1777 31.0106C98.12 31.3186 98.0718 31.6074 98.0333 31.8769C98.0141 32.1656 97.9852 32.464 97.9467 32.772C97.9275 32.849 97.9082 32.926 97.889 33.003C97.8697 33.0993 97.8408 33.1955 97.8023 33.2918C97.8023 33.388 97.7735 33.465 97.7157 33.5228C97.6965 33.542 97.658 33.5228 97.6002 33.465C97.581 33.4265 97.5617 33.3784 97.5425 33.3206C97.5232 33.2821 97.504 33.2436 97.4847 33.2051C97.4655 33.1089 97.427 32.9453 97.3692 32.7143C97.3115 32.5025 97.2633 32.3581 97.2248 32.2811C97.2056 32.2041 97.1863 32.1175 97.1671 32.0213C97.1478 31.9442 97.1286 31.8673 97.1093 31.7903C97.0901 31.7325 97.0708 31.6651 97.0516 31.5881C97.0516 31.5304 97.0323 31.463 96.9938 31.386L96.9072 31.2994C96.8495 31.2224 96.7917 31.1358 96.734 31.0395C96.6762 30.9625 96.6185 30.8855 96.5607 30.8085C96.5415 30.7508 96.5126 30.693 96.4741 30.6353C96.4356 30.5968 96.3971 30.539 96.3586 30.462C96.3393 30.4235 96.3201 30.385 96.3008 30.3465C96.2816 30.3273 96.2527 30.308 96.2142 30.2888H95.9832C94.732 30.2503 93.654 29.9519 92.7492 29.3936C91.8637 28.8354 91.2477 28.1231 90.9012 27.2569C90.882 27.1991 90.8627 27.1414 90.8435 27.0836C90.8242 27.0259 90.805 26.9681 90.7857 26.9104C90.7857 26.8911 90.7761 26.8719 90.7568 26.8526C90.7568 26.8334 90.7568 26.8141 90.7568 26.7949C90.7376 26.6986 90.7183 26.612 90.6991 26.535C90.6798 26.4387 90.6606 26.3521 90.6413 26.2751C90.6221 26.1596 90.6125 26.0441 90.6125 25.9286C90.6125 25.7939 90.6125 25.6687 90.6125 25.5532C90.6125 25.4762 90.6125 25.4089 90.6125 25.3511C90.6317 25.2934 90.6413 25.226 90.6413 25.149L90.6702 24.9469C90.728 24.6389 90.8146 24.3597 90.9301 24.1095C91.1996 23.4935 91.6135 22.9641 92.1717 22.5214C92.2872 22.4251 92.4027 22.3385 92.5182 22.2615C92.6337 22.1845 92.7588 22.1075 92.8936 22.0305L93.269 21.8284C93.3075 21.7899 93.3556 21.7514 93.4133 21.7129C93.4711 21.6744 93.5288 21.6455 93.5866 21.6262C93.6251 21.5877 93.6732 21.5589 93.731 21.5396C93.7887 21.5204 93.8465 21.5011 93.9042 21.4819C94.116 21.3856 94.3277 21.3086 94.5395 21.2509C94.7705 21.1931 95.0015 21.1354 95.2325 21.0776C95.502 21.0006 95.7715 20.9332 96.041 20.8755C96.3297 20.8177 96.6281 20.76 96.9361 20.7022L97.6291 20.5867C97.8986 20.5482 98.1585 20.5097 98.4087 20.4712C98.6782 20.4135 98.9477 20.3654 99.2172 20.3269C99.2942 20.3269 99.3423 20.3172 99.3616 20.298L99.9968 20.1825V19.7205C99.9968 19.7975 99.9872 19.7782 99.968 19.6627C99.968 19.5472 99.968 19.4799 99.968 19.4606C99.968 19.4799 99.9583 19.4606 99.9391 19.4029C99.9391 19.3259 99.9391 19.297 99.9391 19.3162C99.9391 19.297 99.9295 19.2777 99.9102 19.2585C99.9102 19.2392 99.9102 19.22 99.9102 19.2007C99.8717 19.0852 99.7947 18.9697 99.6792 18.8542C99.66 18.8542 99.6503 18.8542 99.6503 18.8542C99.6503 18.835 99.6311 18.8254 99.5926 18.8254C99.5541 18.8446 99.506 18.8831 99.4482 18.9409C99.4097 18.9986 99.3808 19.0467 99.3616 19.0852C99.3038 19.1815 99.2365 19.3066 99.1595 19.4606C99.0825 19.5954 98.9862 19.6916 98.8707 19.7494C98.736 19.8264 98.6108 19.7782 98.4953 19.605C98.3798 19.4317 98.2836 19.3066 98.2066 19.2296C98.1681 19.1911 98.1392 19.1719 98.12 19.1719L97.8601 19.4317C97.8023 19.4702 97.7446 19.5087 97.6868 19.5472C97.6291 19.5857 97.5713 19.6242 97.5136 19.6627C97.3981 19.7205 97.273 19.7686 97.1382 19.8071C97.0227 19.8264 96.9072 19.8552 96.7917 19.8937C96.5607 19.9707 96.3297 20.0574 96.0987 20.1536C95.887 20.2306 95.6656 20.2884 95.4346 20.3269C95.1458 20.3654 94.8763 20.3076 94.6261 20.1536C94.3758 19.9804 94.1063 19.9034 93.8176 19.9226C93.5481 19.9226 93.2786 19.913 93.0091 19.8937C92.7588 19.8745 92.499 19.8264 92.2295 19.7494C92.1525 19.7109 92.1043 19.6916 92.0851 19.6916C92.0658 19.6916 92.0466 19.7012 92.0273 19.7205C92.0081 19.7397 91.9888 19.7397 91.9696 19.7205C91.9503 19.7012 91.9311 19.682 91.9118 19.6627C91.9118 19.6435 91.8926 19.6242 91.8541 19.605C91.8348 19.5665 91.806 19.528 91.7675 19.4895C91.729 19.451 91.7097 19.4317 91.7097 19.4317C91.6905 19.4125 91.6616 19.3644 91.6231 19.2874C91.5846 19.1719 91.575 19.0564 91.5942 18.9409C91.6135 18.8061 91.6423 18.681 91.6808 18.5655C91.7001 18.5077 91.7193 18.45 91.7386 18.3922C91.7578 18.3345 91.7771 18.2671 91.7963 18.1901C91.9888 17.8244 92.2006 17.5067 92.4316 17.2372C92.6433 16.9677 92.8936 16.7079 93.1823 16.4576C93.4903 16.2074 93.8368 15.986 94.2218 15.7935C94.3758 15.6587 94.5587 15.5432 94.7705 15.447C94.963 15.3507 95.1651 15.2737 95.3768 15.216C95.6078 15.1582 95.8388 15.1101 96.0698 15.0716C96.5126 14.9561 96.9938 14.8695 97.5136 14.8117C98.0333 14.7347 98.6012 14.6962 99.2172 14.6962H99.7947C99.9102 14.6962 100.016 14.6962 100.112 14.6962C100.209 14.6962 100.286 14.7059 100.343 14.7251L100.545 14.754H100.69C100.94 14.754 101.123 14.7829 101.238 14.8406C101.566 14.8599 101.893 14.9176 102.22 15.0139C102.451 15.0524 102.673 15.1005 102.884 15.1583C103.115 15.216 103.317 15.293 103.491 15.3892C103.741 15.4662 103.982 15.5817 104.213 15.7357C104.463 15.8897 104.684 16.0437 104.877 16.1977C104.877 16.217 104.877 16.2266 104.877 16.2266C104.896 16.2266 104.906 16.2266 104.906 16.2266C104.963 16.2651 105.011 16.3132 105.05 16.371C105.108 16.4095 105.156 16.448 105.194 16.4865C106.118 17.3142 106.667 18.4211 106.84 19.8071C106.859 19.8264 106.869 19.8552 106.869 19.8937C106.927 20.298 106.946 20.7022 106.927 21.1065C106.927 21.5107 106.927 21.915 106.927 22.3192V28.2964C106.927 28.3926 106.927 28.4985 106.927 28.614C106.946 28.7295 106.956 28.845 106.956 28.9605ZM100.083 24.1384V23.7919C100.083 23.7726 100.064 23.7726 100.026 23.7919C100.006 23.7919 99.9776 23.8015 99.9391 23.8207C99.9198 23.8207 99.9006 23.8207 99.8813 23.8207C99.8043 23.8592 99.7177 23.8977 99.6215 23.9362C99.5252 23.9555 99.429 23.9844 99.3327 24.0229C99.1402 24.0999 98.9381 24.1576 98.7263 24.1961C98.5338 24.2154 98.3317 24.2442 98.12 24.2827C98.0237 24.302 97.9178 24.3309 97.8023 24.3694C97.6868 24.4079 97.581 24.456 97.4847 24.5137C97.4077 24.5715 97.35 24.6292 97.3115 24.687C97.1767 24.8602 97.1093 25.0335 97.1093 25.2067C97.1093 25.3415 97.1767 25.5147 97.3115 25.7265C97.35 25.7457 97.3885 25.7746 97.427 25.8131C97.4847 25.8324 97.5425 25.8612 97.6002 25.8997L97.7446 25.9575C97.9948 25.9767 98.1296 25.996 98.1488 26.0152C98.1681 26.0152 98.2836 26.0056 98.4953 25.9864C99.3231 25.8709 99.8236 25.3992 99.9968 24.5715C100.035 24.456 100.055 24.3501 100.055 24.2539C100.055 24.1961 100.064 24.1576 100.083 24.1384ZM134.722 29.6535C134.703 29.692 134.665 29.7401 134.607 29.7979L134.549 29.8556C134.511 29.8941 134.482 29.9134 134.463 29.9134C134.443 29.9519 134.414 29.9904 134.376 30.0289C134.357 30.1444 134.337 30.2599 134.318 30.3754C134.318 30.5101 134.299 30.6353 134.26 30.7508C134.241 30.9433 134.203 31.1454 134.145 31.3571C134.106 31.5881 134.068 31.8095 134.029 32.0213C133.991 32.1753 133.943 32.3485 133.885 32.541C133.847 32.7335 133.779 32.9068 133.683 33.0608C133.606 33.1763 133.529 33.1859 133.452 33.0896C133.394 33.0319 133.346 32.926 133.308 32.772C133.269 32.6373 133.231 32.541 133.192 32.4833C133.096 32.0983 133.019 31.694 132.961 31.2705C132.942 31.1165 132.932 30.9721 132.932 30.8374C132.932 30.7219 132.913 30.5968 132.874 30.462L132.788 30.5486C132.711 30.6641 132.643 30.77 132.586 30.8663L132.499 31.0684C132.499 31.0684 132.47 31.1261 132.412 31.2416C132.393 31.2609 132.384 31.2801 132.384 31.2994C132.384 31.3379 132.374 31.3668 132.355 31.386C132.355 31.4053 132.345 31.4245 132.326 31.4438C132.326 31.463 132.326 31.4823 132.326 31.5015C132.326 31.5208 132.307 31.5689 132.268 31.6459C132.249 31.6651 132.239 31.6844 132.239 31.7036C132.239 31.7421 132.23 31.771 132.21 31.7903C132.21 31.8095 132.201 31.8288 132.181 31.848L132.095 32.0501V32.079C132.095 32.0983 132.085 32.1079 132.066 32.1079C132.047 32.1849 132.018 32.2523 131.979 32.31C131.941 32.387 131.902 32.4544 131.864 32.5121L131.633 32.772L131.575 32.8298C131.556 32.8298 131.546 32.8298 131.546 32.8298C131.546 32.849 131.537 32.8586 131.517 32.8586C131.498 32.9741 131.479 33.0896 131.46 33.2051C131.46 33.3206 131.45 33.4361 131.431 33.5516C131.411 33.6864 131.373 33.8596 131.315 34.0714C131.277 34.3024 131.238 34.4853 131.2 34.62C131.18 34.6393 131.161 34.6681 131.142 34.7066C131.142 34.7644 131.123 34.7933 131.084 34.7933C131.046 34.7933 130.998 34.7451 130.94 34.6489C130.921 34.3986 130.911 34.1484 130.911 33.8981C130.911 33.6479 130.882 33.4073 130.824 33.1763C130.824 33.1185 130.815 33.1378 130.795 33.234C130.795 33.3303 130.786 33.4169 130.767 33.4939C130.767 33.5901 130.757 33.619 130.738 33.5805C130.661 33.4458 130.632 33.3014 130.651 33.1474C130.67 33.0126 130.661 32.8779 130.622 32.7431C130.564 32.7046 130.507 32.6469 130.449 32.5699C130.391 32.5121 130.362 32.4833 130.362 32.4833L130.045 32.1656C130.006 32.1271 129.968 32.079 129.929 32.0213C129.891 31.9828 129.852 31.9346 129.814 31.8769C129.775 31.8191 129.737 31.7614 129.698 31.7036C129.679 31.6459 129.65 31.5881 129.612 31.5304C129.535 31.3571 129.458 31.1743 129.381 30.9818C129.323 30.8085 129.255 30.6256 129.178 30.4331C129.178 30.3946 129.169 30.3754 129.15 30.3754C129.15 30.3369 129.14 30.308 129.121 30.2888C129.101 30.4235 129.082 30.5679 129.063 30.7219C129.063 30.8951 129.044 31.0588 129.005 31.2128C129.005 31.232 128.986 31.2224 128.947 31.1839C128.928 31.1454 128.909 31.1165 128.89 31.0973C128.87 30.9818 128.861 30.8663 128.861 30.7508C128.861 30.6545 128.851 30.5486 128.832 30.4331C128.793 30.4716 128.774 30.4909 128.774 30.4909C128.736 30.5679 128.716 30.6064 128.716 30.6064L128.63 30.693C128.611 30.693 128.601 30.693 128.601 30.693C128.601 30.7123 128.591 30.7219 128.572 30.7219C128.534 30.7989 128.495 30.8951 128.457 31.0106C128.437 31.0684 128.418 31.1261 128.399 31.1839C128.38 31.2416 128.351 31.2994 128.312 31.3571C128.293 31.4341 128.274 31.5304 128.254 31.6459C128.254 31.7614 128.235 31.7903 128.197 31.7325C128.139 31.6363 128.12 31.5208 128.139 31.386C128.158 31.2513 128.149 31.1165 128.11 30.9818C128.091 30.9625 128.072 30.9625 128.052 30.9818C128.033 31.001 128.014 31.0106 127.995 31.0106C127.918 31.0106 127.879 31.0106 127.879 31.0106C127.86 31.1646 127.869 31.3764 127.908 31.6459C127.946 31.9154 127.966 32.1464 127.966 32.3389C127.985 32.5314 127.918 32.5891 127.764 32.5121C127.629 32.3581 127.542 32.2041 127.504 32.0501C127.484 31.9154 127.484 31.7999 127.504 31.7036C127.427 31.7806 127.398 31.7133 127.417 31.5015C127.436 31.309 127.427 31.1646 127.388 31.0684C127.369 30.9336 127.359 30.8085 127.359 30.693C127.359 30.5775 127.34 30.462 127.302 30.3465C127.282 30.3273 127.253 30.2984 127.215 30.2599C127.196 30.2406 127.167 30.2118 127.128 30.1733C127.071 30.0963 127.013 30.0289 126.955 29.9711C126.917 29.9134 126.868 29.846 126.811 29.769C126.791 29.7305 126.763 29.692 126.724 29.6535C126.686 29.615 126.647 29.5765 126.609 29.538C126.474 29.384 126.349 29.2107 126.233 29.0182C126.118 28.8257 126.002 28.6429 125.887 28.4696L124.761 26.7371C124.684 26.6216 124.635 26.535 124.616 26.4772C124.539 26.3617 124.472 26.2559 124.414 26.1596C124.299 26.0056 124.183 25.8324 124.068 25.6399L123.952 25.4666L123.779 25.7554C123.683 25.9286 123.577 26.1019 123.461 26.2751C123.365 26.4291 123.269 26.5831 123.172 26.7371C122.922 27.1029 122.682 27.4975 122.451 27.921C122.22 28.3252 121.969 28.7199 121.7 29.1049L121.555 29.3359C121.498 29.4129 121.44 29.4802 121.382 29.538C121.344 29.5957 121.305 29.6439 121.267 29.6824C121.247 29.7016 121.219 29.7305 121.18 29.769C121.161 29.8075 121.132 29.846 121.093 29.8845C121.016 30.0192 120.959 30.1444 120.92 30.2599C120.882 30.3946 120.814 30.5198 120.718 30.6353C120.622 30.7893 120.506 30.8951 120.372 30.9529C120.295 30.9914 120.198 31.001 120.083 30.9818C119.987 30.9818 119.89 31.001 119.794 31.0395C119.679 31.0973 119.573 31.1646 119.476 31.2416C119.399 31.3186 119.313 31.386 119.217 31.4438C119.197 31.463 119.14 31.4726 119.043 31.4726C118.947 31.4919 118.889 31.463 118.87 31.386C118.851 31.2128 118.841 31.0395 118.841 30.8663C118.841 30.693 118.822 30.5198 118.783 30.3465C118.764 30.4235 118.735 30.5005 118.697 30.5775C118.658 30.6545 118.61 30.7315 118.552 30.8085C118.533 30.8278 118.495 30.8566 118.437 30.8951C118.398 30.9336 118.36 30.9529 118.321 30.9529C118.283 31.0106 118.254 31.0684 118.235 31.1261C118.235 31.1839 118.216 31.2416 118.177 31.2994C118.158 31.3379 118.139 31.3956 118.119 31.4726C118.119 31.5689 118.11 31.5978 118.09 31.5593C118.033 31.463 118.004 31.3571 118.004 31.2416C118.023 31.1454 118.013 31.0491 117.975 30.9529C117.975 30.9336 117.956 30.9144 117.917 30.8951C117.879 30.8951 117.859 30.9048 117.859 30.924C117.821 31.0395 117.792 31.1646 117.773 31.2994C117.773 31.4341 117.754 31.5593 117.715 31.6748C117.715 31.6555 117.677 31.6266 117.6 31.5881C117.58 31.5496 117.551 31.5111 117.513 31.4726C117.474 31.4341 117.436 31.4053 117.397 31.386C117.301 31.2898 117.215 31.1839 117.138 31.0684C117.08 30.9721 117.012 30.8663 116.935 30.7508C116.897 30.6738 116.858 30.5775 116.82 30.462C116.801 30.4428 116.781 30.4139 116.762 30.3754C116.743 30.3561 116.714 30.308 116.676 30.231C116.656 30.1925 116.627 30.154 116.589 30.1155C116.57 30.0963 116.531 30.0866 116.473 30.0866L116.329 30.2599C116.291 30.2984 116.223 30.3176 116.127 30.3176C116.069 30.2984 116.021 30.2695 115.983 30.231C115.963 30.1925 115.934 30.154 115.896 30.1155C115.857 30.1348 115.8 30.1251 115.723 30.0866C115.703 30.1059 115.684 30.1444 115.665 30.2021C115.646 30.2599 115.617 30.308 115.578 30.3465L115.549 30.3754C115.318 30.5679 115.097 30.6449 114.885 30.6064C114.789 30.5871 114.702 30.539 114.625 30.462C114.568 30.385 114.481 30.2984 114.366 30.2021C114.366 30.2791 114.346 30.3176 114.308 30.3176C114.289 30.3369 114.26 30.308 114.221 30.231C114.26 30.1925 114.279 30.1636 114.279 30.1444L114.221 30.2021C114.221 30.2021 114.212 30.1925 114.192 30.1733C114.192 30 114.202 29.9326 114.221 29.9711C114.24 29.9904 114.231 30.0289 114.192 30.0866C114.173 30.1251 114.135 30.154 114.077 30.1733C114.038 30.1925 114.019 30.2695 114.019 30.4043C114 30.4235 114 30.4331 114.019 30.4331C114.019 30.5101 114.029 30.5679 114.048 30.6064C114.067 30.6641 114.058 30.6738 114.019 30.6353C113.942 30.539 113.913 30.4331 113.932 30.3176C113.952 30.2021 113.952 30.0963 113.932 30L113.759 29.9134C113.644 29.8556 113.557 29.769 113.499 29.6535C113.461 29.5957 113.442 29.4899 113.442 29.3359C113.442 29.2589 113.461 29.1915 113.499 29.1337C113.538 29.0375 113.586 28.9412 113.644 28.845C113.721 28.7487 113.798 28.6332 113.875 28.4985C113.99 28.306 114.106 28.1135 114.221 27.921C114.356 27.7092 114.491 27.5167 114.625 27.3435L115.983 25.2645C116.137 24.9565 116.291 24.6774 116.445 24.4271C116.599 24.1576 116.753 23.9266 116.907 23.7341C117.099 23.4069 117.292 23.0892 117.484 22.7812C117.677 22.454 117.888 22.146 118.119 21.8572L118.581 21.222L119.217 20.2402C119.217 20.221 119.226 20.2114 119.245 20.2114L119.534 19.5761C119.515 19.5376 119.496 19.4991 119.476 19.4606C119.457 19.4221 119.438 19.3932 119.419 19.374C119.38 19.3355 119.342 19.2874 119.303 19.2296C119.265 19.1526 119.245 19.1141 119.245 19.1141C119.245 19.0949 119.236 19.0852 119.217 19.0852C119.217 19.0852 119.217 19.0756 119.217 19.0564C119.197 19.0179 119.168 18.9697 119.13 18.912C119.111 18.8542 119.082 18.7965 119.043 18.7387L118.841 18.45C118.764 18.3345 118.687 18.219 118.61 18.1035C118.552 17.9687 118.475 17.834 118.379 17.6992C118.321 17.6415 118.264 17.5837 118.206 17.526C118.167 17.449 118.11 17.372 118.033 17.295C117.802 16.9677 117.58 16.5827 117.369 16.14C117.253 15.9475 117.138 15.755 117.022 15.5625C116.926 15.3507 116.83 15.1486 116.733 14.9561L115.261 12.6172C115.203 12.521 115.145 12.4247 115.087 12.3285C115.03 12.2322 114.972 12.136 114.914 12.0397C114.837 11.8857 114.741 11.7317 114.625 11.5777C114.529 11.4045 114.443 11.2601 114.366 11.1446C114.346 11.1061 114.327 11.0772 114.308 11.058C114.308 11.0387 114.298 11.0195 114.279 11.0002L114.192 10.827C114.077 10.673 114.029 10.4901 114.048 10.2784C114.106 10.0089 114.289 9.84525 114.597 9.7875C114.693 9.749 114.789 9.73937 114.885 9.75862C114.982 9.75862 115.078 9.75862 115.174 9.75862C115.29 9.75862 115.395 9.76825 115.492 9.7875C115.607 9.7875 115.713 9.7875 115.809 9.7875H119.823C119.919 9.7875 120.025 9.7875 120.141 9.7875C120.275 9.76825 120.4 9.75862 120.516 9.75862C120.689 9.75862 120.862 9.76825 121.036 9.7875C121.209 9.7875 121.373 9.826 121.527 9.903C121.7 9.98 121.835 10.0859 121.931 10.2206C122.046 10.3361 122.123 10.4324 122.162 10.5094C122.258 10.6249 122.335 10.75 122.393 10.8847C122.47 11.0195 122.547 11.1542 122.624 11.289L122.826 11.6644C122.961 11.8761 123.086 12.0975 123.201 12.3285C123.317 12.5402 123.442 12.752 123.577 12.9637L123.75 13.2814C123.865 13.4546 123.971 13.6375 124.068 13.83L124.183 14.0321L124.299 13.83C124.337 13.753 124.376 13.6856 124.414 13.6279C124.453 13.5701 124.491 13.5124 124.53 13.4546L124.789 13.0504C124.943 12.7809 125.107 12.5114 125.28 12.2419C125.454 11.9724 125.627 11.7125 125.8 11.4622L125.887 11.289C125.906 11.2505 125.925 11.2216 125.944 11.2024C125.964 11.1639 125.983 11.1254 126.002 11.0869C126.041 11.0291 126.079 10.9714 126.118 10.9136C126.175 10.8366 126.224 10.7596 126.262 10.6826L126.435 10.3939C126.474 10.3361 126.532 10.2687 126.609 10.1917C126.705 10.0955 126.83 10.0089 126.984 9.93187C127.157 9.83562 127.388 9.7875 127.677 9.7875H133.596C133.75 9.7875 133.895 9.85487 134.029 9.98962C134.203 10.1629 134.26 10.365 134.203 10.596C134.164 10.673 134.145 10.7211 134.145 10.7404C134.087 10.8559 134.02 10.9617 133.943 11.058C133.866 11.1542 133.798 11.2505 133.741 11.3467L133.019 12.5017L132.99 12.5306L131.488 14.9272C131.219 15.4085 130.949 15.8897 130.68 16.371C130.43 16.833 130.17 17.2084 129.9 17.4971C129.766 17.6896 129.602 17.9399 129.409 18.2479C129.217 18.5366 129.044 18.7965 128.89 19.0275C128.89 19.0467 128.88 19.0564 128.861 19.0564C128.861 19.0564 128.861 19.066 128.861 19.0852L128.601 19.4895L128.543 19.5761L128.774 19.9226C128.813 19.9804 128.851 20.0381 128.89 20.0959C128.928 20.1536 128.957 20.2017 128.976 20.2402C128.996 20.2787 129.024 20.3172 129.063 20.3557C129.101 20.4327 129.14 20.5001 129.178 20.5579C129.236 20.6156 129.275 20.683 129.294 20.76C129.39 20.8947 129.486 21.0391 129.583 21.1931C129.679 21.3279 129.775 21.4626 129.871 21.5974C129.968 21.6744 130.064 21.7995 130.16 21.9727C130.276 22.1267 130.401 22.3 130.536 22.4925C130.747 22.7042 130.949 22.993 131.142 23.3587C131.334 23.7052 131.527 24.071 131.719 24.456L133.308 26.9104C133.481 27.1414 133.644 27.382 133.798 27.6322C133.952 27.8825 134.106 28.1231 134.26 28.3541C134.357 28.4696 134.453 28.5947 134.549 28.7295C134.645 28.8642 134.703 28.999 134.722 29.1337C134.761 29.2107 134.78 29.2877 134.78 29.3647C134.78 29.4417 134.761 29.538 134.722 29.6535ZM114.019 30.4043L114.221 30.2021V30.231L114.019 30.4331V30.4043Z" fill="#005B96"/>
</svg>
