<svg width="4" height="11" viewBox="0 0 4 11" fill="none" xmlns="http://www.w3.org/2000/svg">
<path d="M2.00033 8.16553C2.35395 8.16553 2.69309 8.306 2.94313 8.55605C3.19318 8.8061 3.33366 9.14524 3.33366 9.49886C3.33366 9.85248 3.19318 10.1916 2.94313 10.4417C2.69309 10.6917 2.35395 10.8322 2.00033 10.8322C1.6467 10.8322 1.30757 10.6917 1.05752 10.4417C0.807468 10.1916 0.666992 9.85248 0.666992 9.49886C0.666992 9.14524 0.807468 8.8061 1.05752 8.55605C1.30757 8.306 1.6467 8.16553 2.00033 8.16553ZM2.00033 4.16553C2.35395 4.16553 2.69309 4.306 2.94313 4.55605C3.19318 4.8061 3.33366 5.14524 3.33366 5.49886C3.33366 5.85248 3.19318 6.19162 2.94313 6.44167C2.69309 6.69172 2.35395 6.83219 2.00033 6.83219C1.6467 6.83219 1.30757 6.69172 1.05752 6.44167C0.807468 6.19162 0.666992 5.85248 0.666992 5.49886C0.666992 5.14524 0.807468 4.8061 1.05752 4.55605C1.30757 4.306 1.6467 4.16553 2.00033 4.16553ZM2.00033 0.165527C2.35395 0.165527 2.69309 0.306003 2.94313 0.556052C3.19318 0.8061 3.33366 1.14524 3.33366 1.49886C3.33366 1.85248 3.19318 2.19162 2.94313 2.44167C2.69309 2.69172 2.35395 2.83219 2.00033 2.83219C1.6467 2.83219 1.30757 2.69172 1.05752 2.44167C0.807468 2.19162 0.666992 1.85248 0.666992 1.49886C0.666992 1.14524 0.807468 0.8061 1.05752 0.556052C1.30757 0.306003 1.6467 0.165527 2.00033 0.165527Z" fill="#757575"/>
</svg>
