<svg width="212" height="207" viewBox="0 0 212 207" fill="none" xmlns="http://www.w3.org/2000/svg">
<g clip-path="url(#clip0_2046_6319)">
<path d="M134.586 46.5394H77.4617C76.16 46.541 74.912 47.0588 73.9915 47.9793C73.071 48.8998 72.5532 50.1478 72.5516 51.4496V178.41L71.8969 178.609L57.8833 182.901C57.2192 183.103 56.5018 183.034 55.8887 182.708C55.2756 182.382 54.8169 181.827 54.6132 181.163L12.9292 45.0042C12.7264 44.34 12.7955 43.6225 13.1214 43.0093C13.4474 42.3961 14.0034 41.9374 14.6674 41.734L36.2623 35.1217L98.8668 15.959L120.462 9.34666C120.79 9.24551 121.136 9.21017 121.478 9.24265C121.82 9.27513 122.153 9.37479 122.456 9.53594C122.76 9.69708 123.029 9.91654 123.248 10.1818C123.467 10.447 123.631 10.7528 123.732 11.0816L134.387 45.8847L134.586 46.5394Z" fill="#F2F2F2"/>
<path d="M147.052 45.885L134.21 3.93922C133.996 3.24032 133.647 2.59038 133.182 2.02652C132.717 1.46266 132.146 0.995946 131.5 0.65304C130.855 0.310134 130.148 0.0977549 129.421 0.0280475C128.693 -0.0416599 127.959 0.0326702 127.261 0.246783L96.8995 9.54006L34.2984 28.706L3.93732 38.0026C2.5269 38.4357 1.34594 39.4107 0.653653 40.7136C-0.0386325 42.0165 -0.185684 43.5409 0.244784 44.9521L44.135 188.306C44.4847 189.445 45.1903 190.442 46.1483 191.151C47.1062 191.859 48.2661 192.242 49.4577 192.244C50.0092 192.244 50.5576 192.161 51.0845 191.998L71.897 185.628L72.5517 185.425V184.741L71.897 184.941L50.8914 191.373C49.6465 191.752 48.3018 191.623 47.1525 191.012C46.0031 190.401 45.1428 189.36 44.7603 188.116L0.873417 44.759C0.683915 44.1425 0.617868 43.4948 0.679057 42.8528C0.740246 42.2108 0.927463 41.5872 1.23 41.0177C1.53254 40.4482 1.94445 39.944 2.44214 39.5339C2.93984 39.1238 3.51353 38.8159 4.13039 38.6278L34.4915 29.3313L97.0927 10.1686L127.454 0.872015C127.922 0.729227 128.408 0.656423 128.897 0.655967C129.947 0.658324 130.969 0.996783 131.812 1.62177C132.656 2.24676 133.277 3.12543 133.585 4.12908L146.368 45.885L146.571 46.5397H147.252L147.052 45.885Z" fill="#3F3D56"/>
<path d="M40.1589 41.841C39.528 41.8405 38.9138 41.6379 38.4065 41.2628C37.8992 40.8877 37.5255 40.3599 37.3401 39.7569L33.1238 25.9849C33.0105 25.615 32.9712 25.2264 33.0081 24.8412C33.045 24.4561 33.1574 24.082 33.3389 23.7403C33.5204 23.3987 33.7675 23.0961 34.0659 22.8499C34.3644 22.6037 34.7084 22.4187 35.0784 22.3055L92.6709 4.67357C93.418 4.44558 94.2251 4.52334 94.9149 4.88977C95.6048 5.25619 96.1211 5.88135 96.3505 6.62804L100.567 20.4001C100.795 21.1472 100.717 21.9542 100.35 22.644C99.984 23.3339 99.3589 23.8502 98.6123 24.0797L41.0197 41.7117C40.7408 41.7972 40.4507 41.8408 40.1589 41.841Z" fill="#9B9B9B"/>
<path d="M62.2456 14.7158C65.8613 14.7158 68.7925 11.7847 68.7925 8.16894C68.7925 4.5532 65.8613 1.62207 62.2456 1.62207C58.6299 1.62207 55.6987 4.5532 55.6987 8.16894C55.6987 11.7847 58.6299 14.7158 62.2456 14.7158Z" fill="#9B9B9B"/>
<path d="M62.2458 12.3141C64.5354 12.3141 66.3915 10.458 66.3915 8.16839C66.3915 5.87879 64.5354 4.02271 62.2458 4.02271C59.9562 4.02271 58.1001 5.87879 58.1001 8.16839C58.1001 10.458 59.9562 12.3141 62.2458 12.3141Z" fill="white"/>
<path d="M197.269 190.571H86.6271C85.8895 190.57 85.1822 190.277 84.6606 189.755C84.139 189.234 83.8456 188.526 83.8447 187.789V55.2145C83.8456 54.4769 84.139 53.7696 84.6606 53.248C85.1822 52.7264 85.8895 52.433 86.6271 52.4321H197.269C198.007 52.433 198.714 52.7264 199.236 53.248C199.757 53.7696 200.051 54.4769 200.052 55.2145V187.789C200.051 188.526 199.757 189.234 199.236 189.755C198.714 190.277 198.007 190.57 197.269 190.571Z" fill="#E6E6E6"/>
<path d="M146.368 45.8845H77.4618C75.9866 45.8866 74.5723 46.4736 73.5292 47.5167C72.486 48.5599 71.8991 49.9741 71.897 51.4494V184.94L72.5517 184.74V51.4494C72.5532 50.1476 73.0711 48.8996 73.9916 47.9791C74.912 47.0586 76.16 46.5408 77.4618 46.5392H146.571L146.368 45.8845ZM206.435 45.8845H77.4618C75.9866 45.8866 74.5723 46.4736 73.5292 47.5167C72.486 48.5599 71.8991 49.9741 71.897 51.4494V201.373C71.8991 202.848 72.486 204.262 73.5292 205.305C74.5723 206.348 75.9866 206.935 77.4618 206.938H206.435C207.91 206.935 209.325 206.348 210.368 205.305C211.411 204.262 211.998 202.848 212 201.373V51.4494C211.998 49.9741 211.411 48.5599 210.368 47.5167C209.325 46.4736 207.91 45.8866 206.435 45.8845ZM211.345 201.373C211.344 202.674 210.826 203.922 209.905 204.843C208.985 205.763 207.737 206.281 206.435 206.283H77.4618C76.16 206.281 74.912 205.763 73.9916 204.843C73.0711 203.922 72.5532 202.674 72.5517 201.373V51.4494C72.5532 50.1476 73.0711 48.8996 73.9916 47.9791C74.912 47.0586 76.16 46.5408 77.4618 46.5392H206.435C207.737 46.5408 208.985 47.0586 209.905 47.9791C210.826 48.8996 211.344 50.1476 211.345 51.4494V201.373Z" fill="#3F3D56"/>
<path d="M172.064 60.288H111.833C111.052 60.2871 110.303 59.9764 109.751 59.4241C109.198 58.8718 108.888 58.123 108.887 57.3419V42.9388C108.888 42.1577 109.198 41.4088 109.751 40.8565C110.303 40.3042 111.052 39.9936 111.833 39.9927H172.064C172.845 39.9936 173.594 40.3042 174.146 40.8565C174.699 41.4088 175.009 42.1577 175.01 42.9388V57.3419C175.009 58.123 174.699 58.8718 174.146 59.4241C173.594 59.9764 172.845 60.2871 172.064 60.288Z" fill="#9B9B9B"/>
<path d="M141.948 40.9748C145.564 40.9748 148.495 38.0437 148.495 34.428C148.495 30.8122 145.564 27.8811 141.948 27.8811C138.333 27.8811 135.401 30.8122 135.401 34.428C135.401 38.0437 138.333 40.9748 141.948 40.9748Z" fill="#9B9B9B"/>
<path d="M141.948 38.4157C144.15 38.4157 145.935 36.6304 145.935 34.4281C145.935 32.2258 144.15 30.4404 141.948 30.4404C139.745 30.4404 137.96 32.2258 137.96 34.4281C137.96 36.6304 139.745 38.4157 141.948 38.4157Z" fill="white"/>
</g>
<defs>
<clipPath id="clip0_2046_6319">
<rect width="212" height="206.938" fill="white"/>
</clipPath>
</defs>
</svg>
