<svg width="18" height="16" viewBox="0 0 18 16" fill="none" xmlns="http://www.w3.org/2000/svg">
<path d="M14.8337 4.66789C16.217 4.66789 17.3337 5.78455 17.3337 7.16789V12.1679H14.0003V15.5012H4.00033V12.1679H0.666992V7.16789C0.666992 5.78455 1.78366 4.66789 3.16699 4.66789H4.00033V0.501221H14.0003V4.66789H14.8337ZM5.66699 2.16789V4.66789H12.3337V2.16789H5.66699ZM12.3337 13.8346V10.5012H5.66699V13.8346H12.3337ZM14.0003 10.5012H15.667V7.16789C15.667 6.70955 15.292 6.33455 14.8337 6.33455H3.16699C2.70866 6.33455 2.33366 6.70955 2.33366 7.16789V10.5012H4.00033V8.83455H14.0003V10.5012ZM14.8337 7.58455C14.8337 8.04289 14.4587 8.41789 14.0003 8.41789C13.542 8.41789 13.167 8.04289 13.167 7.58455C13.167 7.12622 13.542 6.75122 14.0003 6.75122C14.4587 6.75122 14.8337 7.12622 14.8337 7.58455Z" fill="#2C2C2C"/>
</svg>
