<svg width="40" height="41" viewBox="0 0 40 41" fill="none" xmlns="http://www.w3.org/2000/svg">
<circle cx="20" cy="20.5" r="19.75" fill="#F2F2F2" stroke="#E6E6E6" stroke-width="0.5"/>
<path d="M22.3343 21.14L22.2512 21.2376L22.3418 21.3282L22.6118 21.5982L22.6525 21.6388H22.71H23.4425L28.3037 26.5L27 27.8037L22.1388 22.9425V22.21V22.1525L22.0982 22.1118L21.8282 21.8418L21.7376 21.7512L21.64 21.8343C20.524 22.7839 19.0755 23.3612 17.5 23.3612C15.8129 23.3612 14.1949 22.691 13.002 21.498C11.809 20.3051 11.1388 18.6871 11.1388 17C11.1388 15.3129 11.809 13.6949 13.002 12.502C14.1949 11.309 15.8129 10.6388 17.5 10.6388C19.1871 10.6388 20.8051 11.309 21.998 12.502C23.191 13.6949 23.8612 15.3129 23.8612 17C23.8612 18.5755 23.2839 20.024 22.3343 21.14ZM17.5 12.3612C14.9233 12.3612 12.8612 14.4233 12.8612 17C12.8612 19.5767 14.9233 21.6388 17.5 21.6388C20.0767 21.6388 22.1388 19.5767 22.1388 17C22.1388 14.4233 20.0767 12.3612 17.5 12.3612Z" fill="#9B9B9B" stroke="#9B9B9B" stroke-width="0.277671"/>
</svg>
