<svg width="18" height="18" viewBox="0 0 18 18" fill="none" xmlns="http://www.w3.org/2000/svg">
<path d="M11.3343 10.64L11.2512 10.7376L11.3418 10.8282L11.6118 11.0982L11.6525 11.1388H11.71H12.4425L17.3037 16L16 17.3037L11.1388 12.4425V11.71V11.6525L11.0982 11.6118L10.8282 11.3418L10.7376 11.2512L10.64 11.3343C9.52398 12.2839 8.07554 12.8612 6.5 12.8612C4.81291 12.8612 3.19493 12.191 2.00198 10.998C0.809027 9.80507 0.138835 8.18709 0.138835 6.5C0.138835 4.81291 0.809027 3.19493 2.00198 2.00198C3.19493 0.809027 4.81291 0.138835 6.5 0.138835C8.18709 0.138835 9.80507 0.809027 10.998 2.00198C12.191 3.19493 12.8612 4.81291 12.8612 6.5C12.8612 8.07554 12.2839 9.52398 11.3343 10.64ZM6.5 1.86116C3.92332 1.86116 1.86116 3.92332 1.86116 6.5C1.86116 9.07668 3.92332 11.1388 6.5 11.1388C9.07668 11.1388 11.1388 9.07668 11.1388 6.5C11.1388 3.92332 9.07668 1.86116 6.5 1.86116Z" fill="#2C2C2C" stroke="#2C2C2C" stroke-width="0.277671"/>
</svg>
