<svg width="16" height="16" viewBox="0 0 16 16" fill="none" xmlns="http://www.w3.org/2000/svg">
<path d="M11.3337 12.0009C11.707 12.0009 12.0003 12.2942 12.0003 12.6676C12.0003 13.0409 11.707 13.3342 11.3337 13.3342C10.9603 13.3342 10.667 13.0409 10.667 12.6676C10.667 12.2942 10.9603 12.0009 11.3337 12.0009ZM11.3337 10.0009C9.51366 10.0009 7.96033 11.1076 7.33366 12.6676C7.96033 14.2276 9.51366 15.3342 11.3337 15.3342C13.1537 15.3342 14.707 14.2276 15.3337 12.6676C14.707 11.1076 13.1537 10.0009 11.3337 10.0009ZM11.3337 14.3342C10.8916 14.3342 10.4677 14.1586 10.1551 13.8461C9.84259 13.5335 9.66699 13.1096 9.66699 12.6676C9.66699 12.2255 9.84259 11.8016 10.1551 11.4891C10.4677 11.1765 10.8916 11.0009 11.3337 11.0009C11.7757 11.0009 12.1996 11.1765 12.5122 11.4891C12.8247 11.8016 13.0003 12.2255 13.0003 12.6676C13.0003 13.1096 12.8247 13.5335 12.5122 13.8461C12.1996 14.1586 11.7757 14.3342 11.3337 14.3342ZM6.18033 13.3342H4.00033V2.66756H8.66699V6.0009H12.0003V8.71423C12.467 8.76756 12.907 8.8809 13.3337 9.0409V5.33423L9.33366 1.33423H4.00033C3.6467 1.33423 3.30756 1.4747 3.05752 1.72475C2.80747 1.9748 2.66699 2.31394 2.66699 2.66756V13.3342C2.66699 13.6879 2.80747 14.027 3.05752 14.277C3.30756 14.5271 3.6467 14.6676 4.00033 14.6676H7.00033C6.66699 14.2742 6.39366 13.8209 6.18033 13.3342Z" fill="#757575"/>
</svg>
